<?xml version="1.0" standalone="no"?>
<!DOCTYPE svg PUBLIC "-//W3C//DTD SVG 1.1//EN" "http://www.w3.org/Graphics/SVG/1.1/DTD/svg11.dtd" >
<svg xmlns="http://www.w3.org/2000/svg" xmlns:xlink="http://www.w3.org/1999/xlink" version="1.1">
<metadata>
Created by FontForge 20170731 at Wed Jul 18 16:18:18 2007
 By Aleksey,,,
Copyright (c) The Font Bureau, Inc., 2003. All rights reserved.
</metadata>
<defs>
<font id="Vonnes-MediumCond" horiz-adv-x="633" >
  <font-face 
    font-family="Vonnes MediumCond"
    font-weight="500"
    font-stretch="normal"
    units-per-em="1000"
    panose-1="2 0 5 6 3 0 0 2 0 4"
    ascent="828"
    descent="-172"
    x-height="538"
    cap-height="770"
    bbox="-151 -200 1292 950"
    underline-thickness="15"
    underline-position="-88"
    unicode-range="U+0020-FB02"
  />
<missing-glyph horiz-adv-x="500" 
 />
    <glyph glyph-name="fi" unicode="fi" horiz-adv-x="487" 
d="M434 0h-102v454h-149v-454h-103v454h-64v81h64v85q0 67 42 108.5t115 41.5q69 0 75 -2v-83q-6 2 -51 2q-36 0 -57 -21t-21 -62v-69h251v-535z" />
    <glyph glyph-name="fl" unicode="fl" horiz-adv-x="485" 
d="M432 0h-102v770h102v-770zM257 535v-81h-74v-454h-103v454h-64v81h64v100q0 58 39 96.5t105 38.5q58 0 66 -2v-83q-6 2 -39 2t-50.5 -19.5t-17.5 -50.5v-82h74z" />
    <glyph glyph-name=".notdef" horiz-adv-x="500" 
 />
    <glyph glyph-name=".null" horiz-adv-x="0" 
 />
    <glyph glyph-name="nonmarkingreturn" horiz-adv-x="333" 
 />
    <glyph glyph-name="space" unicode=" " horiz-adv-x="209" 
 />
    <glyph glyph-name="space" unicode="&#xa0;" horiz-adv-x="209" 
 />
    <glyph glyph-name="exclam" unicode="!" horiz-adv-x="225" 
d="M169 770l-15 -582h-83l-13 582h111zM173 0h-119v120h119v-120z" />
    <glyph glyph-name="quotedbl" unicode="&#x22;" horiz-adv-x="357" 
d="M317 772l-14 -239h-86l-13 239h113zM152 772l-14 -239h-87l-12 239h113z" />
    <glyph glyph-name="numbersign" unicode="#" horiz-adv-x="465" 
d="M439 499l-13 -78h-108l-11 -80h108l-11 -75h-108l-37 -266h-40l37 266h-84l-37 -266h-41l38 266h-110l12 75h108l11 80h-108l13 78h107l38 271h41l-38 -271h83l39 271h40l-38 -271h109zM278 421h-84l-11 -80h84z" />
    <glyph glyph-name="dollar" unicode="$" horiz-adv-x="517" 
d="M485 221q0 -210 -209 -218v-58h-45v58q-95 7 -147 57t-59 137q-1 15 1 49l110 22q-2 -38 -2 -62q12 -101 97 -116v281q-103 36 -148 79.5t-45 127.5q0 85 49 136t144 57v23h45v-22q81 -6 128 -49t60 -115q0 -27 1 -37l-103 -22q0 2 -2 15.5t-3 21.5q-19 82 -81 95v-228
q110 -34 159.5 -88.5t49.5 -143.5zM231 476v208q-45 -5 -67.5 -32.5t-22.5 -71.5q0 -41 20.5 -64t69.5 -40zM376 215q0 52 -23 81.5t-77 50.5v-259q100 9 100 127z" />
    <glyph glyph-name="percent" unicode="%" horiz-adv-x="925" 
d="M398 526q0 -245 -183 -245q-98 0 -141 60t-43 185q0 245 184 245q90 0 136.5 -57t46.5 -188zM629 770l-278 -771h-66l278 771h66zM893 242q0 -245 -183 -245q-98 0 -140.5 60t-42.5 185q0 245 183 245q90 0 136.5 -57.5t46.5 -187.5zM306 526q0 89 -23 128.5t-68 39.5
q-47 0 -69 -39.5t-22 -128.5t21.5 -129t69.5 -40t69.5 41.5t21.5 127.5zM801 242q0 90 -22.5 129t-68.5 39q-47 0 -69 -39.5t-22 -128.5q0 -88 22 -128t69 -40q48 0 69.5 41.5t21.5 126.5z" />
    <glyph glyph-name="ampersand" unicode="&#x26;" horiz-adv-x="616" 
d="M600 57l-76 -63q-49 12 -114 79q-58 -79 -177 -79q-96 0 -149.5 61t-53.5 155q0 85 33.5 141.5t112.5 109.5q-35 82 -35 155q0 79 49 119.5t119 40.5q69 0 110.5 -39.5t41.5 -112.5q0 -59 -38.5 -104.5t-107.5 -84.5q32 -78 112 -189q57 96 79 179l73 -52
q-33 -123 -94 -214q22 -31 58 -62.5t57 -39.5zM366 620q0 32 -14 50.5t-41 18.5q-61 0 -61 -79q0 -50 22 -106q94 49 94 116zM352 151q-98 131 -133 222q-42 -30 -59.5 -64.5t-17.5 -83.5q0 -58 31 -96t80 -38q57 0 99 60z" />
    <glyph glyph-name="quotesingle" unicode="'" horiz-adv-x="185" 
d="M149 772l-15 -239h-86l-12 239h113z" />
    <glyph glyph-name="parenleft" unicode="(" horiz-adv-x="321" 
d="M293 704q-56 -35 -106 -140.5t-50 -250.5q0 -148 52 -256.5t107 -146.5l-39 -79q-89 47 -157 178t-68 304q0 93 21.5 175.5t56.5 139.5t70.5 94.5t71.5 58.5z" />
    <glyph glyph-name="parenright" unicode=")" horiz-adv-x="321" 
d="M286 312q0 -176 -68 -304.5t-155 -177.5l-41 79q55 38 107.5 147t52.5 256q0 144 -50 250t-106 142l41 77q82 -46 150.5 -171t68.5 -298z" />
    <glyph glyph-name="asterisk" unicode="*" horiz-adv-x="456" 
d="M414 520l-41 -71l-109 69l5 -130h-82l5 132l-110 -71l-41 71l115 60l-114 59l42 72l108 -70l-5 129h82l-5 -128l108 69l41 -71l-115 -60z" />
    <glyph glyph-name="plus" unicode="+" horiz-adv-x="413" 
d="M381 292h-136v-139h-82v139h-135v81h135v139h82v-139h136v-81z" />
    <glyph glyph-name="comma" unicode="," horiz-adv-x="236" 
d="M181 -5q0 -27 -22.5 -59t-49.5 -43l-48 14q21 15 34 42.5t13 50.5h-52v124h125v-129z" />
    <glyph glyph-name="hyphen" unicode="-" horiz-adv-x="328" 
d="M284 307h-239v97h239v-97z" />
    <glyph glyph-name="hyphen" unicode="&#xad;" horiz-adv-x="328" 
d="M284 307h-239v97h239v-97z" />
    <glyph glyph-name="period" unicode="." horiz-adv-x="236" 
d="M180 0h-124v124h124v-124z" />
    <glyph glyph-name="slash" unicode="/" horiz-adv-x="322" 
d="M319 770l-258 -926h-87l259 926h86z" />
    <glyph glyph-name="zero" unicode="0" horiz-adv-x="545" 
d="M504 381q0 -212 -53 -298.5t-178 -86.5q-121 0 -178 87.5t-57 297.5q0 149 28 236.5t77.5 121t129.5 33.5q124 0 177.5 -86t53.5 -305zM388 388q0 169 -25.5 230.5t-88.5 61.5q-64 0 -91 -61.5t-27 -229.5q0 -171 27 -235t90 -64q43 0 67 25.5t36 90.5t12 182z" />
    <glyph glyph-name="one" unicode="1" horiz-adv-x="319" 
d="M255 0h-115v620q-13 -23 -50.5 -44t-78.5 -33v84q113 45 153 143h91v-770z" />
    <glyph glyph-name="two" unicode="2" horiz-adv-x="522" 
d="M484 0h-449q1 104 46.5 182.5t148.5 156.5q83 63 107.5 103.5t24.5 112.5q0 67 -23.5 95.5t-72.5 28.5q-53 0 -80 -28t-29 -91q0 -5 2 -60l-119 -22q-5 59 -4 71q11 224 228 224q222 0 222 -213q0 -101 -36.5 -162t-134.5 -117q-120 -85 -147 -184h316v-97z" />
    <glyph glyph-name="three" unicode="3" horiz-adv-x="521" 
d="M485 236q0 -241 -235 -241q-109 0 -164.5 50.5t-56.5 142.5q0 47 4 79l119 -14q-2 -20 -2 -60q1 -108 106 -108q54 0 79.5 34t25.5 122q0 77 -28.5 108.5t-93.5 31.5h-71v86h64q63 0 91 25t28 93q0 96 -94 96q-95 0 -99 -100q0 -14 2 -38l-117 -7q-2 13 -2 44
q4 95 63.5 143t155.5 48q98 0 155.5 -45t57.5 -141q0 -76 -23 -111t-72 -48q107 -21 107 -190z" />
    <glyph glyph-name="four" unicode="4" horiz-adv-x="537" 
d="M504 171h-74v-171h-115v170h-287v84l256 516h145v-502h75v-97zM316 621q-2 -8 -13 -31.5t-15 -33.5l-148 -289h174v275q0 10 1 39.5t1 39.5z" />
    <glyph glyph-name="five" unicode="5" horiz-adv-x="526" 
d="M493 276q0 -147 -56 -214t-174 -67q-211 0 -226 180q-2 20 -2 60l114 17q0 -31 3 -55q9 -61 35 -88t71 -27q59 0 86 43t27 149q0 97 -26.5 134.5t-82.5 37.5q-46 0 -70 -23t-37 -68l-107 16l17 399h410l-24 -91h-290l-8 -192q51 53 138 53q100 0 151 -61.5t51 -202.5z
" />
    <glyph glyph-name="six" unicode="6" horiz-adv-x="525" 
d="M492 273q0 -278 -226 -278q-110 0 -170 70.5t-61 203.5v55v67v45q1 336 240 336q87 0 134 -40t57 -105q1 -8 3.5 -23.5t2.5 -19.5l-111 -21q-2 20 -6 40q-7 41 -27 60.5t-57 19.5q-58 0 -87.5 -57.5t-30.5 -190.5q22 35 61 53t85 18q95 0 144 -55t49 -178zM370 260
q0 88 -24 122t-79 34q-109 0 -109 -157q0 -173 104 -173q55 0 81.5 38.5t26.5 135.5z" />
    <glyph glyph-name="seven" unicode="7" horiz-adv-x="467" 
d="M454 700q-46 -124 -151 -340q-30 -92 -45.5 -171.5t-18.5 -188.5h-135q1 179 80 384q37 96 142 286h-318v100h446v-70z" />
    <glyph glyph-name="eight" unicode="8" horiz-adv-x="512" 
d="M482 233q0 -118 -59.5 -178.5t-167.5 -60.5q-107 0 -166 59.5t-59 174.5q0 97 26.5 144t73.5 62q-40 13 -65.5 53t-25.5 99q0 93 58.5 141t159.5 48q96 0 154.5 -49t58.5 -141q0 -62 -23 -100t-63 -50q98 -30 98 -202zM352 578q0 61 -22.5 86.5t-73.5 25.5
q-52 0 -74.5 -26t-22.5 -87q0 -114 96 -114q97 0 97 115zM363 234q0 84 -26 115t-82 31q-53 0 -78 -32.5t-25 -114.5q0 -81 25.5 -115t79.5 -34q55 0 80.5 34t25.5 116z" />
    <glyph glyph-name="nine" unicode="9" horiz-adv-x="533" 
d="M490 336q0 -179 -56.5 -260t-178.5 -81q-89 0 -140 41t-61 119q-5 15 -7 30l112 18q0 -5 2.5 -16.5t2.5 -14.5q15 -87 92 -87q61 0 87 55t28 192q-46 -68 -141 -68q-197 0 -197 234q0 277 221 277q227 0 235 -279q1 -34 1 -160zM363 503q0 101 -26 140.5t-78 39.5
q-55 0 -79.5 -36.5t-24.5 -136.5q0 -88 25 -122.5t78 -34.5q105 0 105 150z" />
    <glyph glyph-name="colon" unicode=":" horiz-adv-x="222" 
d="M168 398h-114v124h114v-124zM168 0h-114v124h114v-124z" />
    <glyph glyph-name="semicolon" unicode=";" horiz-adv-x="223" 
d="M170 398h-115v124h115v-124zM170 -4q0 -27 -22.5 -60t-46.5 -43l-42 14q16 12 29 42t14 51h-47v124h115v-128z" />
    <glyph glyph-name="less" unicode="&#x3c;" horiz-adv-x="339" 
d="M290 74l-250 230v77l250 231v-123l-155 -147l155 -144v-124z" />
    <glyph glyph-name="equal" unicode="=" horiz-adv-x="412" 
d="M364 364h-319v95h319v-95zM364 183h-319v95h319v-95z" />
    <glyph glyph-name="greater" unicode="&#x3e;" horiz-adv-x="331" 
d="M297 300l-250 -231v124l154 144l-154 147v124l250 -232v-76z" />
    <glyph glyph-name="question" unicode="?" horiz-adv-x="484" 
d="M450 594q0 -77 -20.5 -116t-76.5 -83q-40 -38 -55.5 -67.5t-16.5 -78.5q-1 -2 -1 -65h-98v74q1 62 19.5 100.5t67.5 84.5q43 41 57 70t14 85q0 96 -93 96q-103 0 -109 -127v-48l-111 21q0 36 1 42q5 97 61 147t156 50q102 0 153.5 -49.5t51.5 -135.5zM291 0h-118v119h118
v-119z" />
    <glyph glyph-name="at" unicode="@" horiz-adv-x="631" 
d="M603 422q0 -218 -132 -218q-68 0 -84 49q-34 -49 -103 -49q-48 0 -75.5 30.5t-27.5 81.5q0 54 31 83.5t88 46.5q37 11 52.5 18.5t22.5 22.5q0 45 -56 45q-51 0 -66 -53l-6 -15l-53 29l6 12q11 38 45.5 61.5t83.5 23.5q58 0 89 -28t31 -75v-180q0 -17 10 -27t27 -10
q29 0 42.5 32.5t13.5 104.5q0 311 -224 311q-107 0 -163 -84t-56 -245q0 -169 60.5 -253t162.5 -84q124 0 176 80l46 -35q-69 -103 -222 -103q-133 0 -208 96t-75 293q0 393 280 393q284 0 284 -354zM372 330q2 30 2 81q-14 -9 -42 -17q-41 -13 -57.5 -27.5t-16.5 -44.5
q0 -26 14 -39.5t36 -13.5q30 0 45.5 13.5t18.5 47.5z" />
    <glyph glyph-name="A" unicode="A" horiz-adv-x="550" 
d="M543 0h-119l-40 160h-218l-40 -160h-119l202 770h129zM359 249l-58 224q-1 6 -13.5 67.5t-13.5 83.5q-2 -21 -14.5 -81.5t-13.5 -69.5l-57 -224h170z" />
    <glyph glyph-name="B" unicode="B" horiz-adv-x="588" 
d="M553 235q0 -113 -50.5 -174t-184.5 -61h-261v770h255q212 0 212 -179q0 -134 -92 -165q121 -34 121 -191zM403 578q0 53 -25.5 76.5t-83.5 23.5h-120v-213h128q101 0 101 113zM431 243q0 69 -31.5 100t-92.5 31h-133v-280h129q70 0 99 33t29 116z" />
    <glyph glyph-name="C" unicode="C" horiz-adv-x="558" 
d="M528 547l-122 -23q-15 83 -41.5 119.5t-71.5 36.5q-43 0 -70.5 -23t-44.5 -90t-17 -182q0 -114 16.5 -181t44 -91t69.5 -24q50 0 78 37.5t40 139.5l120 -23q-16 -131 -73.5 -191t-162.5 -60q-127 1 -190.5 93.5t-63.5 302.5q0 112 18 189t53 120t79.5 61.5t104.5 18.5
q104 0 158.5 -55t75.5 -175z" />
    <glyph glyph-name="D" unicode="D" horiz-adv-x="596" 
d="M554 378q0 -216 -58.5 -297t-217.5 -81h-221v770h227q99 0 156 -35t85.5 -120.5t28.5 -236.5zM430 380q0 116 -18 182.5t-48.5 91t-80.5 24.5h-108v-584h107q53 0 84 22.5t47.5 85.5t16.5 178z" />
    <glyph glyph-name="E" unicode="E" horiz-adv-x="511" 
d="M500 0h-443v770h435l-28 -95h-291v-210h255v-96h-255v-273h296z" />
    <glyph glyph-name="F" unicode="F" horiz-adv-x="495" 
d="M495 770l-30 -95h-289v-209h252v-97h-252v-369h-119v770h438z" />
    <glyph glyph-name="G" unicode="G" horiz-adv-x="581" 
d="M537 105q-34 -48 -97.5 -80.5t-134.5 -32.5q-139 0 -202.5 92t-63.5 305q0 388 256 388q99 0 155.5 -53.5t76.5 -164.5l-122 -23q-17 69 -41.5 107.5t-69.5 38.5q-135 0 -135 -296q0 -117 16 -183t46 -91.5t82 -25.5q38 0 70.5 19t49.5 52v208h-155l4 92h265v-352z" />
    <glyph glyph-name="H" unicode="H" horiz-adv-x="598" 
d="M541 0h-119v372h-246v-372h-119v770h119v-301h246v301h119v-770z" />
    <glyph glyph-name="I" unicode="I" horiz-adv-x="235" 
d="M177 0h-119v770h119v-770z" />
    <glyph glyph-name="J" unicode="J" horiz-adv-x="481" 
d="M434 243q0 -130 -49 -190.5t-157 -60.5q-98 0 -148.5 53.5t-52.5 176.5q0 20 1 44l116 28v-77q2 -72 22.5 -100t64.5 -28q47 0 65 33t18 114v534h120v-527z" />
    <glyph glyph-name="K" unicode="K" horiz-adv-x="574" 
d="M577 0h-137l-169 412l-95 -102v-310h-119v770h119v-324q1 3 7 14.5t12 22.5l6 11l234 276h137l-208 -258z" />
    <glyph glyph-name="L" unicode="L" horiz-adv-x="487" 
d="M481 0h-424v770h119v-672h274z" />
    <glyph glyph-name="M" unicode="M" horiz-adv-x="715" 
d="M659 0h-111v577q-2 -14 -14.5 -69t-14.5 -70l-114 -438h-90q-116 439 -116 440q-2 12 -15 69.5t-15 70.5q0 -12 0.5 -71t0.5 -73v-436h-113v770h144l124 -398l36 -189q29 162 33 190l119 397h146v-770z" />
    <glyph glyph-name="N" unicode="N" horiz-adv-x="595" 
d="M540 0h-125l-209 472q-3 13 -19.5 51.5t-17.5 45.5q2 -30 2 -85v-484h-114v770h128l206 -444q1 -5 17.5 -51t18.5 -56q0 11 -0.5 59.5t-0.5 54.5v437h114v-770z" />
    <glyph glyph-name="O" unicode="O" horiz-adv-x="596" 
d="M556 387q0 -112 -17.5 -190t-52.5 -122.5t-80.5 -63.5t-107.5 -19q-128 0 -193.5 89t-65.5 306q0 112 17.5 189t52.5 120.5t81 62t108 18.5q63 0 108 -18.5t80 -61.5t52.5 -120.5t17.5 -189.5zM436 386q0 114 -18 180.5t-46.5 90t-73.5 23.5q-69 0 -104 -64.5t-35 -229.5
q0 -114 17.5 -181t46.5 -91.5t75 -24.5q70 0 104 64.5t34 232.5z" />
    <glyph glyph-name="P" unicode="P" horiz-adv-x="551" 
d="M527 552q0 -120 -51.5 -172t-151.5 -52h-148v-328h-119v770h261q106 0 157.5 -48t51.5 -170zM406 548q0 66 -23 96.5t-78 30.5h-130v-253h123q57 0 82.5 28.5t25.5 97.5z" />
    <glyph glyph-name="Q" unicode="Q" horiz-adv-x="581" 
d="M561 -73l-88 -54q-22 10 -68 54t-61 73q-30 -7 -55 -7q-125 2 -188.5 93t-63.5 301q0 113 18.5 191t54 120.5t79.5 60.5t104 18q50 0 88.5 -11.5t70.5 -39t52.5 -72.5t32 -112.5t11.5 -157.5q0 -272 -108 -346q15 -31 52.5 -64t68.5 -47zM429 387q0 85 -9 143t-27 90.5
t-42 46t-58 13.5q-46 0 -74.5 -24.5t-45 -90.5t-16.5 -179q0 -167 33.5 -232.5t102.5 -65.5q67 0 101.5 67.5t34.5 231.5z" />
    <glyph glyph-name="R" unicode="R" horiz-adv-x="575" 
d="M544 0h-128l-125 374h-117v-374h-117v770h277q105 0 155.5 -55t50.5 -146q0 -153 -130 -183zM417 569q0 107 -106 107h-137v-209h141q102 0 102 102z" />
    <glyph glyph-name="S" unicode="S" horiz-adv-x="550" 
d="M526 226q0 -116 -58 -173.5t-191 -57.5q-232 0 -251 196q-1 15 1 50l133 23q-4 -40 -1 -64q15 -115 125 -115q119 0 119 126q0 59 -22 89.5t-86 55.5q-15 4 -44.5 15t-46.5 16q-86 26 -125 70.5t-39 122.5q0 93 57.5 145t172.5 52q193 0 225 -179q1 -6 3 -20l-121 -24
q0 2 -1.5 21t-2.5 23q-26 89 -109 89q-51 0 -77.5 -27t-26.5 -74q0 -45 22 -70t86 -45q24 -8 84 -29q93 -33 133.5 -80.5t40.5 -135.5z" />
    <glyph glyph-name="T" unicode="T" horiz-adv-x="498" 
d="M484 674h-175v-675h-118v675h-178v96h471v-96z" />
    <glyph glyph-name="U" unicode="U" horiz-adv-x="574" 
d="M519 260q0 -132 -54.5 -199.5t-178.5 -67.5q-125 0 -180 65.5t-55 205.5v506h117v-507q0 -91 26.5 -132t91.5 -41t90.5 41.5t25.5 133.5v505h117v-510z" />
    <glyph glyph-name="V" unicode="V" horiz-adv-x="537" 
d="M529 770l-188 -770h-138l-195 770h122l115 -447q0 -1 13 -73.5t15 -94.5q2 21 15 91t14 77l111 447h116z" />
    <glyph glyph-name="W" unicode="W" horiz-adv-x="819" 
d="M807 770l-172 -770h-115l-91 438q-1 13 -9.5 57t-9.5 58q-2 -26 -20 -116l-91 -438l-114 1l-175 770h116l97 -422q1 -4 12.5 -60.5t13.5 -85.5q2 30 24 145l85 423h102l90 -424q22 -107 24 -144q2 34 26 143l93 425h114z" />
    <glyph glyph-name="X" unicode="X" horiz-adv-x="530" 
d="M515 0h-131l-96 215q-1 4 -7 20t-11 32.5t-7 25.5q-2 -10 -13.5 -41.5t-12.5 -35.5l-102 -216h-124l189 393l-181 377h131q91 -198 92 -199q2 -7 13 -36.5t13 -40.5q2 11 13.5 41t13.5 37l96 198h121l-183 -373z" />
    <glyph glyph-name="Y" unicode="Y" horiz-adv-x="533" 
d="M529 770l-201 -491v-279h-120v280l-204 490h130l104 -264q0 -2 15.5 -46.5t18.5 -61.5q2 12 8.5 35t14 45.5t8.5 26.5l102 265h124z" />
    <glyph glyph-name="Z" unicode="Z" horiz-adv-x="511" 
d="M487 0h-462v85l327 589h-311v96h449v-93l-319 -580h316v-97z" />
    <glyph glyph-name="bracketleft" unicode="[" horiz-adv-x="294" 
d="M260 676h-109v-742h108v-94h-212v930h213v-94z" />
    <glyph glyph-name="backslash" unicode="\" horiz-adv-x="322" 
d="M348 -160h-87l-257 930h88z" />
    <glyph glyph-name="bracketright" unicode="]" horiz-adv-x="294" 
d="M247 -160h-213v94h109v742h-110v94h214v-930z" />
    <glyph glyph-name="asciicircum" unicode="^" horiz-adv-x="362" 
d="M333 509h-99l-42 140q-8 33 -9 37q-1 -6 -5.5 -20.5t-4.5 -17.5l-49 -139h-97l102 261h108z" />
    <glyph glyph-name="underscore" unicode="_" horiz-adv-x="329" 
d="M329 -148h-329v87h329v-87z" />
    <glyph glyph-name="grave" unicode="`" horiz-adv-x="299" 
d="M224 581h-82l-71 147h101z" />
    <glyph glyph-name="a" unicode="a" horiz-adv-x="456" 
d="M440 3q-28 -5 -64 -5q-60 0 -75 58q-49 -61 -138 -61q-138 0 -138 159q0 74 44 116t130 67q59 17 77.5 30t19.5 40q0 26 -18.5 42.5t-58.5 16.5q-76 0 -97 -91l-77 36q14 62 60.5 97t119.5 35q87 0 129 -40.5t42 -130.5v-247q0 -49 22 -50h22v-72zM294 173q3 41 3 123
q-23 -17 -72 -27q-49 -18 -72 -42.5t-23 -67.5q0 -44 16.5 -63t51.5 -19q42 0 66.5 25t29.5 71z" />
    <glyph glyph-name="b" unicode="b" horiz-adv-x="471" 
d="M439 267q0 -149 -42.5 -209.5t-127.5 -60.5q-37 0 -71 15t-49 40v-52h-99v771h102v-289q35 61 118 61q56 0 91 -22t56.5 -84t21.5 -170zM336 270q0 111 -22.5 153.5t-70.5 42.5q-41 0 -64 -27.5t-25 -78.5q0 -2 -0.5 -35t-0.5 -55q0 -24 0.5 -60t0.5 -38
q2 -45 26.5 -71.5t64.5 -26.5q48 0 69.5 42.5t21.5 153.5z" />
    <glyph glyph-name="c" unicode="c" horiz-adv-x="443" 
d="M420 188q-10 -100 -54.5 -146t-133.5 -46q-102 0 -150 61.5t-48 209.5q0 146 49 211t149 65q167 0 186 -176l-101 -16q-5 60 -25 86.5t-59 26.5q-48 0 -71.5 -40.5t-23.5 -153.5q0 -106 24 -151.5t71 -45.5q41 0 60 30.5t26 99.5z" />
    <glyph glyph-name="d" unicode="d" horiz-adv-x="473" 
d="M422 0h-100v55q-37 -58 -120 -58q-86 0 -127.5 61.5t-41.5 213.5q0 81 13 136t38 83t53 39t66 11q80 0 117 -56v285h102v-770zM318 176q0 2 1 37t1 59q0 81 -1 92q-3 49 -26 74.5t-63 25.5q-49 0 -71.5 -40.5t-22.5 -152.5q0 -111 23 -154t71 -43q83 0 88 102z" />
    <glyph glyph-name="e" unicode="e" horiz-adv-x="451" 
d="M423 252h-288q2 -100 26 -141t70 -41q41 0 61 27.5t26 89.5l100 -15q-20 -177 -188 -177q-99 0 -147.5 63.5t-48.5 216.5q0 268 198 268q96 0 143.5 -65t47.5 -226zM321 322q-4 84 -26.5 116t-63.5 32q-46 0 -68 -43t-26 -105h184z" />
    <glyph glyph-name="f" unicode="f" horiz-adv-x="272" 
d="M261 686q-3 1 -29 1t-37.5 -13t-11.5 -45v-94h76v-81h-76v-454h-103v454h-64v81h64v112q0 123 120 123h61v-84z" />
    <glyph glyph-name="g" unicode="g" horiz-adv-x="470" 
d="M420 29q0 -89 -41.5 -140.5t-148.5 -51.5q-169 0 -180 122l67 20q5 -30 32.5 -49.5t73.5 -19.5q48 0 72 26t26 84q0 2 0.5 21.5t0.5 22.5q-10 -28 -41.5 -46t-78.5 -18q-86 0 -127.5 61.5t-41.5 210.5q0 82 13 137t38 82.5t53.5 38t66.5 10.5q39 0 70 -16t44 -41v55h102
v-509zM318 209v126q-3 130 -90 130q-48 0 -70 -39.5t-22 -154.5q0 -111 23 -154t71 -43q44 0 65.5 32.5t22.5 102.5z" />
    <glyph glyph-name="h" unicode="h" horiz-adv-x="472" 
d="M422 0h-102v370q0 92 -74 92q-37 0 -63 -25t-30 -64v-373h-103v772h103v-296q42 67 130 67q139 0 139 -165v-378z" />
    <glyph glyph-name="i" unicode="i" horiz-adv-x="207" 
d="M156 617h-105v111h105v-111zM155 0h-103v538h103v-538z" />
    <glyph glyph-name="j" unicode="j" horiz-adv-x="204" 
d="M157 617h-105v110h105v-110zM155 -54q0 -55 -25 -80.5t-82 -25.5q-36 0 -46 2v79h17q20 0 26.5 11.5t6.5 38.5v567h103v-592z" />
    <glyph glyph-name="k" unicode="k" horiz-adv-x="448" 
d="M449 0h-110l-118 278l-68 -69v-209h-103v770h103v-427l167 195h119l-142 -175z" />
    <glyph glyph-name="l" unicode="l" horiz-adv-x="204" 
d="M153 0h-103v770h103v-770z" />
    <glyph glyph-name="m" unicode="m" horiz-adv-x="716" 
d="M667 0h-102v369q0 92 -70 92q-38 0 -60.5 -25t-23.5 -61v-375h-99v369q0 93 -73 93q-37 0 -59 -24t-27 -62v-376h-103v538h103v-59q40 63 123 63q85 0 117 -65q46 65 135 65q139 0 139 -167v-375z" />
    <glyph glyph-name="n" unicode="n" horiz-adv-x="477" 
d="M425 0h-102v369q0 93 -75 93q-35 0 -60.5 -23.5t-31.5 -66.5v-372h-103v538h103v-63q45 68 128 68q70 0 105.5 -39t35.5 -124v-380z" />
    <glyph glyph-name="o" unicode="o" horiz-adv-x="469" 
d="M435 269q0 -144 -50 -209t-151 -65q-103 0 -151.5 64.5t-48.5 209.5q0 144 49 209t152 65q102 0 151 -64.5t49 -209.5zM331 269q0 106 -24 151t-72 45q-49 0 -73.5 -45.5t-24.5 -150.5q0 -107 24.5 -151.5t72.5 -44.5q51 0 74 44t23 152z" />
    <glyph glyph-name="p" unicode="p" horiz-adv-x="476" 
d="M442 267q0 -151 -42.5 -211t-124.5 -60q-83 0 -119 52v-208h-102v698h101v-56q15 27 47 43.5t72 16.5q54 0 89 -21.5t57 -84t22 -169.5zM339 270q0 111 -22 153t-70 42q-86 0 -91 -109q0 -3 -0.5 -34.5t-0.5 -50.5q0 -23 0.5 -59t0.5 -38q2 -48 27 -73.5t63 -25.5
q51 0 72 41t21 154z" />
    <glyph glyph-name="q" unicode="q" horiz-adv-x="473" 
d="M422 -160h-102v215q-14 -26 -45 -42.5t-73 -16.5q-85 0 -127 59.5t-42 216.5q0 79 12 133.5t35.5 83.5t52 41t67.5 12q83 0 119 -58v54h103v-698zM320 271q0 20 -0.5 51t-0.5 34q-2 51 -26.5 79t-64.5 28q-48 0 -70 -41t-22 -154q0 -112 22.5 -154t72.5 -42q85 0 88 109
q0 2 0.5 35t0.5 55z" />
    <glyph glyph-name="r" unicode="r" horiz-adv-x="309" 
d="M298 445q-6 3 -27 3q-100 0 -118 -121v-327h-103v538h103v-79q46 82 133 82h12v-96z" />
    <glyph glyph-name="s" unicode="s" horiz-adv-x="413" 
d="M391 151q0 -78 -50 -117t-134 -39q-86 0 -131 35t-58 108q0 2 -0.5 13.5t-0.5 15.5l92 22q-2 -14 1 -26q8 -50 30.5 -70t62.5 -20q80 0 80 75q0 38 -13.5 58t-52.5 33q-14 5 -39 11.5t-38 10.5q-57 18 -86.5 50.5t-29.5 88.5q0 60 47.5 101.5t132.5 41.5q139 0 168 -116
q0 -2 2.5 -9.5l3.5 -10.5l-91 -26q-2 12 -4 17q-16 67 -81 67q-35 0 -54 -17.5t-19 -49.5q0 -29 16 -43.5t62 -28.5q7 -2 37.5 -11t44.5 -14q54 -18 78 -53.5t24 -96.5z" />
    <glyph glyph-name="t" unicode="t" horiz-adv-x="278" 
d="M251 454h-75v-313q0 -33 8.5 -47t29.5 -14q28 0 32 1v-82q-36 -4 -57 -4q-62 0 -89 29.5t-27 101.5v328h-65v81h65v134l103 46v-180h75v-81z" />
    <glyph glyph-name="u" unicode="u" horiz-adv-x="466" 
d="M416 0h-102v60q-18 -28 -51.5 -46.5t-76.5 -18.5q-142 0 -142 164v379h102v-371q0 -92 75 -92q37 0 63 24.5t30 64.5v374h102v-538z" />
    <glyph glyph-name="v" unicode="v" horiz-adv-x="424" 
d="M420 538l-153 -538h-108l-156 538h107l87 -327q3 -10 10 -47t8 -51q4 48 18 98l84 327h103z" />
    <glyph glyph-name="w" unicode="w" horiz-adv-x="655" 
d="M651 538l-140 -538h-103l-69 346q-1 3 -6 25.5t-5 24.5q-6 -30 -11 -50l-73 -346h-104l-136 538h105l71 -315q15 -64 17 -95q1 16 8 53.5t7 41.5l71 315h98l66 -315q0 -2 4 -21t7.5 -39t4.5 -34q3 41 16 94l73 315h99z" />
    <glyph glyph-name="x" unicode="x" horiz-adv-x="425" 
d="M417 0h-114l-69 139q-2 6 -11 28t-10 29q-2 -7 -10.5 -28.5t-10.5 -28.5l-68 -139h-119l146 278l-137 260h113l62 -124q1 -2 10 -23.5t11 -30.5q2 9 11.5 29.5t10.5 24.5l62 124h111l-135 -259z" />
    <glyph glyph-name="y" unicode="y" horiz-adv-x="417" 
d="M414 538q-123 -486 -156 -598q-34 -112 -150 -112q-39 0 -55 7l7 81q8 -7 40 -7q25 0 40 18.5t23 64.5l-157 546h107l85 -311q18 -101 18 -106q1 14 9 57t9 48l77 312h103z" />
    <glyph glyph-name="z" unicode="z" horiz-adv-x="397" 
d="M374 0h-353v71l226 385h-214v82h338v-76l-227 -381h230v-81z" />
    <glyph glyph-name="braceleft" unicode="{" horiz-adv-x="342" 
d="M313 -160q-112 0 -157 40.5t-45 126.5v171q0 41 -20 62t-68 21v90q49 0 68.5 19t19.5 63v139q0 114 45.5 156t156.5 42v-89q-59 0 -80 -26t-22 -103v-141q0 -46 -17.5 -71t-55.5 -33q36 -7 54 -31.5t18 -56.5v-164q0 -77 20 -102t83 -25v-88z" />
    <glyph glyph-name="bar" unicode="|" horiz-adv-x="213" 
d="M156 -160h-97v932h97v-932z" />
    <glyph glyph-name="braceright" unicode="}" horiz-adv-x="342" 
d="M315 260q-47 0 -67 -21t-20 -62q0 -1 -0.5 -81t-0.5 -88q0 -86 -44.5 -127t-156.5 -41v88q62 0 82 25t20 102q0 1 0.5 80t0.5 83q0 32 17.5 56t53.5 31q-73 17 -73 105v141q-1 77 -22 103t-79 26v89q111 0 156 -41.5t45 -156.5v-140q0 -44 19.5 -63t68.5 -19v-89z" />
    <glyph glyph-name="asciitilde" unicode="~" horiz-adv-x="399" 
d="M361 388q-7 -28 -33.5 -48.5t-56.5 -22.5q-39 -1 -78 17q-36 17 -60 16q-34 -1 -44 -32l-54 32q8 28 32.5 49t58.5 22q37 1 75 -17q38 -17 59 -16q36 1 45 34z" />
    <glyph glyph-name="exclamdown" unicode="&#xa1;" horiz-adv-x="225" 
d="M171 471h-119v120h119v-120zM167 -179h-111l14 583h84z" />
    <glyph glyph-name="cent" unicode="&#xa2;" horiz-adv-x="446" 
d="M414 262q-8 -92 -46 -137.5t-112 -51.5v0v0v-1v0v-1v-1v-1v-1v-1v-1v-1v-1v-1v-1v-1v-1v-1v-1v-1v-1v-1v-1v-1v-2v-1v-1v-1v-2v-1v-1v-2v-1v-2v-1v-1v-2v-1v-2v-1v-2v-2v-1v-2v-1v-2v-2v-1v-2v-2v-1v-2v-2v-1v-2v-2v-9h-50v79q-84 6 -124.5 66t-40.5 193q0 132 40.5 194
t124.5 70v64h50v-64q140 -13 156 -173l-96 -14q-5 54 -20.5 79.5t-46.5 29.5v-368q32 4 47 33.5t21 91.5zM213 152v367q-35 -6 -52.5 -47t-17.5 -137q0 -95 17 -136t53 -47z" />
    <glyph glyph-name="sterling" unicode="&#xa3;" horiz-adv-x="498" 
d="M468 547q1 -29 -5 -59l-115 14q5 41 4 58q-2 65 -27 94.5t-78 29.5q-51 0 -77 -28.5t-26 -94.5q0 -38 15 -72t30 -52t46 -49h163v-73h-124q11 -40 7 -79q-5 -49 -33 -87t-72 -57q22 5 286 5l16 -97h-453v81q84 26 120.5 63t36.5 94q0 35 -24 78h-117v68h65q-36 36 -57 78
t-21 108q0 102 60 154t164 52q107 0 159.5 -57t56.5 -172z" />
    <glyph glyph-name="currency" unicode="&#xa4;" horiz-adv-x="522" 
d="M511 211q-2 -215 -209 -215q-107 0 -163.5 71t-67.5 232h-49v54h45v27q0 34 1 50h-46v55h50q14 154 71 221.5t159 67.5q195 0 204 -193l-111 -19q-6 54 -25 87t-66 33q-51 0 -79 -45t-37 -152h250v-55h-254q-1 -13 -1 -40q0 -7 0.5 -19t0.5 -18h254v-54h-251
q7 -117 35 -163t80 -46q48 0 70.5 28.5t25.5 103.5z" />
    <glyph glyph-name="yen" unicode="&#xa5;" horiz-adv-x="492" 
d="M483 770l-184 -468v-22h154v-64h-154v-56h154v-63h-153v-97h-107v97h-149v63h150v56h-150v64h150v23l-184 467h125q114 -312 115 -345q0 14 28 100t56 165l28 80h121z" />
    <glyph glyph-name="brokenbar" unicode="&#xa6;" 
d="M507 507q0 -59 -23 -100.5t-56 -41.5q-31 0 -53.5 41.5t-22.5 100.5q0 60 22.5 103t53.5 43q33 0 56 -43t23 -103zM284 507q0 -59 -23.5 -100.5t-55.5 -41.5q-31 0 -53.5 41.5t-22.5 100.5q0 60 22.5 103t53.5 43q32 0 55.5 -43t23.5 -103zM619 210q0 -60 -23 -101
t-55 -41q-33 0 -56 41t-23 101q0 59 23.5 102t55.5 43t55 -43t23 -102zM396 210q0 -59 -22.5 -100.5t-53.5 -41.5q-33 0 -56 41t-23 101q0 59 23.5 102t55.5 43q31 0 53.5 -43t22.5 -102zM170 209q0 -59 -22.5 -100t-55.5 -41q-32 0 -55 41t-23 100q0 60 23 103t55 43
q33 0 55.5 -43t22.5 -103z" />
    <glyph glyph-name="section" unicode="&#xa7;" horiz-adv-x="415" 
d="M391 140q0 -76 -48.5 -113.5t-132.5 -37.5q-85 0 -130 35.5t-56 108.5q-2 8 -2 30l89 23q0 -19 2 -27q13 -92 94 -92t81 76q0 37 -17.5 59t-59.5 38q-43 16 -63 22q-60 20 -89 48t-29 82q0 38 25 67t62 42q-71 40 -71 130q0 66 44.5 104t118.5 38q133 0 157 -116
q6 -18 6 -31l-83 -24l-4 27q-15 69 -76 69q-67 0 -67 -69q0 -35 16 -55t66 -36l18 -6t21.5 -7.5t17.5 -5.5q104 -31 104 -121q0 -81 -83 -113q89 -39 89 -145zM291 387q0 31 -23 49t-71 33q-31 -6 -51 -24t-20 -45q0 -32 22.5 -49t70.5 -34q34 9 53 28t19 42z" />
    <glyph glyph-name="dieresis" unicode="&#xa8;" horiz-adv-x="313" 
d="M279 585h-90v100h90v-100zM125 585h-90v100h90v-100z" />
    <glyph glyph-name="copyright" unicode="&#xa9;" horiz-adv-x="559" 
d="M543 418q0 -70 -15.5 -132t-46 -113.5t-83 -82t-119.5 -30.5t-118.5 29t-82.5 79.5t-46.5 113.5t-15.5 136q0 103 27 182.5t87.5 128.5t148.5 49q133 0 198.5 -99.5t65.5 -260.5zM487 418q0 142 -50.5 224t-157.5 82q-105 0 -156.5 -83t-51.5 -223q0 -58 11.5 -110.5
t35 -97t65 -71t96.5 -26.5q54 0 95.5 27t65.5 72t35.5 97.5t11.5 108.5zM428 491l-74 -14q-12 118 -71 118q-78 0 -78 -179q0 -177 77 -177q32 0 49.5 29t23.5 106l72 -15q-7 -95 -45.5 -141t-100.5 -46q-75 0 -114 57.5t-39 186.5q0 132 39.5 188.5t115.5 56.5
q63 0 98.5 -40t46.5 -130z" />
    <glyph glyph-name="ordfeminine" unicode="&#xaa;" horiz-adv-x="428" 
d="M408 254q-20 -8 -56 -8q-62 0 -70 58q-39 -60 -121 -60q-131 0 -131 151q0 70 39.5 110.5t119.5 67.5q51 17 69.5 31t18.5 41q0 23 -18 39.5t-53 16.5q-37 0 -59.5 -25t-28.5 -67l-70 36q10 60 52 93.5t112 33.5q80 0 117.5 -37t37.5 -114v-258q0 -40 19 -42q19 0 22 1
v-68zM403 154h-363v64h363v-64zM276 413q3 39 3 129q-11 -16 -64 -34q-47 -17 -69 -42t-22 -65q0 -81 68 -81q38 0 59.5 24t24.5 69z" />
    <glyph glyph-name="guillemotleft" unicode="&#xab;" horiz-adv-x="498" 
d="M474 56l-238 224v83l238 227v-109l-151 -157l151 -155v-113zM268 56l-243 227v77l243 230v-109l-151 -157l151 -155v-113z" />
    <glyph glyph-name="logicalnot" unicode="&#xac;" 
d="M507 507q0 -59 -23 -100.5t-56 -41.5q-31 0 -53.5 41.5t-22.5 100.5q0 60 22.5 103t53.5 43q33 0 56 -43t23 -103zM284 507q0 -59 -23.5 -100.5t-55.5 -41.5q-31 0 -53.5 41.5t-22.5 100.5q0 60 22.5 103t53.5 43q32 0 55.5 -43t23.5 -103zM619 210q0 -60 -23 -101
t-55 -41q-33 0 -56 41t-23 101q0 59 23.5 102t55.5 43t55 -43t23 -102zM396 210q0 -59 -22.5 -100.5t-53.5 -41.5q-33 0 -56 41t-23 101q0 59 23.5 102t55.5 43q31 0 53.5 -43t22.5 -102zM170 209q0 -59 -22.5 -100t-55.5 -41q-32 0 -55 41t-23 100q0 60 23 103t55 43
q33 0 55.5 -43t22.5 -103z" />
    <glyph glyph-name="registered" unicode="&#xae;" horiz-adv-x="320" 
d="M160 409q-67 0 -102 52.5t-35 131.5q0 81 35 132.5t102 51.5q68 0 102.5 -51t34.5 -133q0 -77 -35 -130.5t-102 -53.5zM160 440q52 0 78.5 43.5t26.5 109.5q0 153 -105 153q-104 0 -104 -153q0 -69 25.5 -111t78.5 -42zM95 488v214h78q60 0 60 -58q0 -43 -34 -54l32 -102
h-44l-30 98h-21v-98h-41zM136 617h28q27 0 27 26t-27 26h-28v-52z" />
    <glyph glyph-name="macron" unicode="&#xaf;" horiz-adv-x="313" 
d="M270 589h-226v73h226v-73z" />
    <glyph glyph-name="macron" unicode="&#x2c9;" horiz-adv-x="313" 
d="M270 589h-226v73h226v-73z" />
    <glyph glyph-name="degree" unicode="&#xb0;" horiz-adv-x="304" 
d="M281 652q0 -53 -38 -90.5t-91 -37.5t-91 37.5t-38 90.5q0 54 38 92t91 38t91 -38t38 -92zM219 652q0 28 -19.5 48t-47.5 20t-48 -20t-20 -48t20 -47.5t48 -19.5t47.5 19.5t19.5 47.5z" />
    <glyph glyph-name="plusminus" unicode="&#xb1;" 
d="M507 507q0 -59 -23 -100.5t-56 -41.5q-31 0 -53.5 41.5t-22.5 100.5q0 60 22.5 103t53.5 43q33 0 56 -43t23 -103zM284 507q0 -59 -23.5 -100.5t-55.5 -41.5q-31 0 -53.5 41.5t-22.5 100.5q0 60 22.5 103t53.5 43q32 0 55.5 -43t23.5 -103zM619 210q0 -60 -23 -101
t-55 -41q-33 0 -56 41t-23 101q0 59 23.5 102t55.5 43t55 -43t23 -102zM396 210q0 -59 -22.5 -100.5t-53.5 -41.5q-33 0 -56 41t-23 101q0 59 23.5 102t55.5 43q31 0 53.5 -43t22.5 -102zM170 209q0 -59 -22.5 -100t-55.5 -41q-32 0 -55 41t-23 100q0 60 23 103t55 43
q33 0 55.5 -43t22.5 -103z" />
    <glyph glyph-name="twosuperior" unicode="&#xb2;" 
d="M507 507q0 -59 -23 -100.5t-56 -41.5q-31 0 -53.5 41.5t-22.5 100.5q0 60 22.5 103t53.5 43q33 0 56 -43t23 -103zM284 507q0 -59 -23.5 -100.5t-55.5 -41.5q-31 0 -53.5 41.5t-22.5 100.5q0 60 22.5 103t53.5 43q32 0 55.5 -43t23.5 -103zM619 210q0 -60 -23 -101
t-55 -41q-33 0 -56 41t-23 101q0 59 23.5 102t55.5 43t55 -43t23 -102zM396 210q0 -59 -22.5 -100.5t-53.5 -41.5q-33 0 -56 41t-23 101q0 59 23.5 102t55.5 43q31 0 53.5 -43t22.5 -102zM170 209q0 -59 -22.5 -100t-55.5 -41q-32 0 -55 41t-23 100q0 60 23 103t55 43
q33 0 55.5 -43t22.5 -103z" />
    <glyph glyph-name="threesuperior" unicode="&#xb3;" 
d="M507 507q0 -59 -23 -100.5t-56 -41.5q-31 0 -53.5 41.5t-22.5 100.5q0 60 22.5 103t53.5 43q33 0 56 -43t23 -103zM284 507q0 -59 -23.5 -100.5t-55.5 -41.5q-31 0 -53.5 41.5t-22.5 100.5q0 60 22.5 103t53.5 43q32 0 55.5 -43t23.5 -103zM619 210q0 -60 -23 -101
t-55 -41q-33 0 -56 41t-23 101q0 59 23.5 102t55.5 43t55 -43t23 -102zM396 210q0 -59 -22.5 -100.5t-53.5 -41.5q-33 0 -56 41t-23 101q0 59 23.5 102t55.5 43q31 0 53.5 -43t22.5 -102zM170 209q0 -59 -22.5 -100t-55.5 -41q-32 0 -55 41t-23 100q0 60 23 103t55 43
q33 0 55.5 -43t22.5 -103z" />
    <glyph glyph-name="acute" unicode="&#xb4;" horiz-adv-x="313" 
d="M244 712l-84 -138h-84l63 138h105z" />
    <glyph glyph-name="mu" unicode="&#xb5;" 
d="M507 507q0 -59 -23 -100.5t-56 -41.5q-31 0 -53.5 41.5t-22.5 100.5q0 60 22.5 103t53.5 43q33 0 56 -43t23 -103zM284 507q0 -59 -23.5 -100.5t-55.5 -41.5q-31 0 -53.5 41.5t-22.5 100.5q0 60 22.5 103t53.5 43q32 0 55.5 -43t23.5 -103zM619 210q0 -60 -23 -101
t-55 -41q-33 0 -56 41t-23 101q0 59 23.5 102t55.5 43t55 -43t23 -102zM396 210q0 -59 -22.5 -100.5t-53.5 -41.5q-33 0 -56 41t-23 101q0 59 23.5 102t55.5 43q31 0 53.5 -43t22.5 -102zM170 209q0 -59 -22.5 -100t-55.5 -41q-32 0 -55 41t-23 100q0 60 23 103t55 43
q33 0 55.5 -43t22.5 -103z" />
    <glyph glyph-name="mu" unicode="&#x3bc;" 
d="M507 507q0 -59 -23 -100.5t-56 -41.5q-31 0 -53.5 41.5t-22.5 100.5q0 60 22.5 103t53.5 43q33 0 56 -43t23 -103zM284 507q0 -59 -23.5 -100.5t-55.5 -41.5q-31 0 -53.5 41.5t-22.5 100.5q0 60 22.5 103t53.5 43q32 0 55.5 -43t23.5 -103zM619 210q0 -60 -23 -101
t-55 -41q-33 0 -56 41t-23 101q0 59 23.5 102t55.5 43t55 -43t23 -102zM396 210q0 -59 -22.5 -100.5t-53.5 -41.5q-33 0 -56 41t-23 101q0 59 23.5 102t55.5 43q31 0 53.5 -43t22.5 -102zM170 209q0 -59 -22.5 -100t-55.5 -41q-32 0 -55 41t-23 100q0 60 23 103t55 43
q33 0 55.5 -43t22.5 -103z" />
    <glyph glyph-name="paragraph" unicode="&#xb6;" horiz-adv-x="480" 
d="M465 676h-45v-676h-74v676h-112q-42 0 -70.5 -28.5t-28.5 -72.5q0 -45 27 -71t69 -27v137h60v-614h-74v390q-85 0 -142.5 52t-57.5 138q0 81 58 135.5t142 54.5h248v-94z" />
    <glyph glyph-name="periodcentered" unicode="&#xb7;" horiz-adv-x="256" 
d="M194 335h-132v137h132v-137z" />
    <glyph glyph-name="periodcentered" unicode="&#x2219;" horiz-adv-x="256" 
d="M194 335h-132v137h132v-137z" />
    <glyph glyph-name="cedilla" unicode="&#xb8;" horiz-adv-x="313" 
d="M249 -88q0 -36 -25.5 -54t-69.5 -18q-56 0 -93 20l21 45q26 -16 63 -16t37 22t-53 22v81h45v-42q31 -1 53 -16t22 -44z" />
    <glyph glyph-name="onesuperior" unicode="&#xb9;" 
d="M507 507q0 -59 -23 -100.5t-56 -41.5q-31 0 -53.5 41.5t-22.5 100.5q0 60 22.5 103t53.5 43q33 0 56 -43t23 -103zM284 507q0 -59 -23.5 -100.5t-55.5 -41.5q-31 0 -53.5 41.5t-22.5 100.5q0 60 22.5 103t53.5 43q32 0 55.5 -43t23.5 -103zM619 210q0 -60 -23 -101
t-55 -41q-33 0 -56 41t-23 101q0 59 23.5 102t55.5 43t55 -43t23 -102zM396 210q0 -59 -22.5 -100.5t-53.5 -41.5q-33 0 -56 41t-23 101q0 59 23.5 102t55.5 43q31 0 53.5 -43t22.5 -102zM170 209q0 -59 -22.5 -100t-55.5 -41q-32 0 -55 41t-23 100q0 60 23 103t55 43
q33 0 55.5 -43t22.5 -103z" />
    <glyph glyph-name="ordmasculine" unicode="&#xba;" horiz-adv-x="439" 
d="M407 509q0 -137 -46 -201.5t-143 -64.5q-99 0 -144.5 64t-45.5 202q0 136 46.5 199.5t144.5 63.5q97 0 142.5 -62t45.5 -201zM402 153h-358v64h358v-64zM307 509q0 104 -22 146t-67 42t-67 -43t-22 -145q1 -104 22.5 -147t66.5 -43t67 43.5t22 146.5z" />
    <glyph glyph-name="guillemotright" unicode="&#xbb;" horiz-adv-x="498" 
d="M473 285l-243 -228v109l152 155l-151 157v113l242 -229v-77zM263 282l-239 -225v109l151 155l-151 157v113l239 -225v-84z" />
    <glyph glyph-name="onequarter" unicode="&#xbc;" 
d="M507 507q0 -59 -23 -100.5t-56 -41.5q-31 0 -53.5 41.5t-22.5 100.5q0 60 22.5 103t53.5 43q33 0 56 -43t23 -103zM284 507q0 -59 -23.5 -100.5t-55.5 -41.5q-31 0 -53.5 41.5t-22.5 100.5q0 60 22.5 103t53.5 43q32 0 55.5 -43t23.5 -103zM619 210q0 -60 -23 -101
t-55 -41q-33 0 -56 41t-23 101q0 59 23.5 102t55.5 43t55 -43t23 -102zM396 210q0 -59 -22.5 -100.5t-53.5 -41.5q-33 0 -56 41t-23 101q0 59 23.5 102t55.5 43q31 0 53.5 -43t22.5 -102zM170 209q0 -59 -22.5 -100t-55.5 -41q-32 0 -55 41t-23 100q0 60 23 103t55 43
q33 0 55.5 -43t22.5 -103z" />
    <glyph glyph-name="onehalf" unicode="&#xbd;" 
d="M507 507q0 -59 -23 -100.5t-56 -41.5q-31 0 -53.5 41.5t-22.5 100.5q0 60 22.5 103t53.5 43q33 0 56 -43t23 -103zM284 507q0 -59 -23.5 -100.5t-55.5 -41.5q-31 0 -53.5 41.5t-22.5 100.5q0 60 22.5 103t53.5 43q32 0 55.5 -43t23.5 -103zM619 210q0 -60 -23 -101
t-55 -41q-33 0 -56 41t-23 101q0 59 23.5 102t55.5 43t55 -43t23 -102zM396 210q0 -59 -22.5 -100.5t-53.5 -41.5q-33 0 -56 41t-23 101q0 59 23.5 102t55.5 43q31 0 53.5 -43t22.5 -102zM170 209q0 -59 -22.5 -100t-55.5 -41q-32 0 -55 41t-23 100q0 60 23 103t55 43
q33 0 55.5 -43t22.5 -103z" />
    <glyph glyph-name="threequarters" unicode="&#xbe;" 
d="M507 507q0 -59 -23 -100.5t-56 -41.5q-31 0 -53.5 41.5t-22.5 100.5q0 60 22.5 103t53.5 43q33 0 56 -43t23 -103zM284 507q0 -59 -23.5 -100.5t-55.5 -41.5q-31 0 -53.5 41.5t-22.5 100.5q0 60 22.5 103t53.5 43q32 0 55.5 -43t23.5 -103zM619 210q0 -60 -23 -101
t-55 -41q-33 0 -56 41t-23 101q0 59 23.5 102t55.5 43t55 -43t23 -102zM396 210q0 -59 -22.5 -100.5t-53.5 -41.5q-33 0 -56 41t-23 101q0 59 23.5 102t55.5 43q31 0 53.5 -43t22.5 -102zM170 209q0 -59 -22.5 -100t-55.5 -41q-32 0 -55 41t-23 100q0 60 23 103t55 43
q33 0 55.5 -43t22.5 -103z" />
    <glyph glyph-name="questiondown" unicode="&#xbf;" horiz-adv-x="484" 
d="M315 472h-118v119h118v-119zM460 9q-5 -96 -62.5 -146t-157.5 -50q-102 0 -152 49t-50 135q0 75 20.5 113.5t75.5 86.5q39 34 55.5 64t17.5 81v66h99q1 -3 1 -36t-1 -39q-1 -64 -18.5 -101.5t-68.5 -83.5q-42 -38 -56.5 -67t-14.5 -86q0 -97 94 -97q102 0 108 126v49
l110 -22v-42z" />
    <glyph glyph-name="Agrave" unicode="&#xc0;" horiz-adv-x="549" 
d="M543 0h-119l-40 160h-218l-40 -160h-119l202 770h129zM359 249l-58 224q-1 6 -13.5 67.5t-13.5 83.5q-2 -21 -14.5 -81.5t-13.5 -69.5l-57 -224h170zM307 803h-82l-71 147h101z" />
    <glyph glyph-name="Aacute" unicode="&#xc1;" horiz-adv-x="549" 
d="M543 0h-119l-40 160h-218l-40 -160h-119l202 770h129zM359 249l-58 224q-1 6 -13.5 67.5t-13.5 83.5q-2 -21 -14.5 -81.5t-13.5 -69.5l-57 -224h170zM386 931l-84 -138h-84l63 138h105z" />
    <glyph glyph-name="Acircumflex" unicode="&#xc2;" horiz-adv-x="549" 
d="M543 0h-119l-40 160h-218l-40 -160h-119l202 770h129zM359 249l-58 224q-1 6 -13.5 67.5t-13.5 83.5q-2 -21 -14.5 -81.5t-13.5 -69.5l-57 -224h170zM390 796h-76l-44 67l-46 -67h-76l88 137h67z" />
    <glyph glyph-name="Atilde" unicode="&#xc3;" horiz-adv-x="549" 
d="M543 0h-119l-40 160h-218l-40 -160h-119l202 770h129zM359 249l-58 224q-1 6 -13.5 67.5t-13.5 83.5q-2 -21 -14.5 -81.5t-13.5 -69.5l-57 -224h170zM406 892q1 -47 -20 -74.5t-54 -27.5q-28 0 -66 20q-29 17 -43 17q-23 0 -25 -34h-59q-1 47 20.5 74.5t54.5 27.5
q26 0 66 -20q26 -17 42 -17q23 0 25 34h59z" />
    <glyph glyph-name="Adieresis" unicode="&#xc4;" horiz-adv-x="549" 
d="M543 0h-119l-40 160h-218l-40 -160h-119l202 770h129zM359 249l-58 224q-1 6 -13.5 67.5t-13.5 83.5q-2 -21 -14.5 -81.5t-13.5 -69.5l-57 -224h170zM394 797h-90v100h90v-100zM240 797h-90v100h90v-100z" />
    <glyph glyph-name="Aring" unicode="&#xc5;" horiz-adv-x="549" 
d="M340 764l203 -764h-119l-40 160h-218l-40 -160h-119l200 763q-28 30 -28 67q0 39 28 67t66 28q39 0 66.5 -28t27.5 -67t-27 -66zM317 831q0 17 -12.5 30t-31.5 13q-17 0 -30 -13t-13 -30q0 -18 13 -31t30 -13q19 0 31.5 13t12.5 31zM359 249l-58 224q-1 6 -13.5 67.5
t-13.5 83.5q-2 -21 -14.5 -81.5t-13.5 -69.5l-57 -224h170z" />
    <glyph glyph-name="AE" unicode="&#xc6;" horiz-adv-x="752" 
d="M747 0h-408v169h-161l-63 -169h-122l299 770h446l-28 -95h-262v-210h226v-96h-226v-273h268zM339 258v402q-2 -11 -11.5 -47.5t-21.5 -79.5t-14 -52q-3 -4 -23 -60t-38 -109l-18 -54h126z" />
    <glyph glyph-name="Ccedilla" unicode="&#xc7;" horiz-adv-x="558" 
d="M266 -7q-114 10 -170.5 103t-56.5 292q0 112 18 189t53 120t79.5 61.5t104.5 18.5q104 0 158.5 -55t75.5 -175l-122 -23q-15 83 -41.5 119.5t-71.5 36.5q-43 0 -70.5 -23t-44.5 -90t-17 -182q0 -114 16.5 -181t44 -91t69.5 -24q50 0 78 37.5t40 139.5l120 -23
q-15 -126 -68 -186t-150 -65v-17q31 -1 53 -16t22 -44q0 -36 -25.5 -54t-69.5 -18q-55 0 -93 20l21 45q26 -16 63 -16t37 22t-53 22v57z" />
    <glyph glyph-name="Egrave" unicode="&#xc8;" horiz-adv-x="511" 
d="M500 0h-443v770h435l-28 -95h-291v-210h255v-96h-255v-273h296zM316 802h-82l-71 147h101z" />
    <glyph glyph-name="Eacute" unicode="&#xc9;" horiz-adv-x="511" 
d="M500 0h-443v770h435l-28 -95h-291v-210h255v-96h-255v-273h296zM384 934l-84 -138h-84l63 138h105z" />
    <glyph glyph-name="Ecircumflex" unicode="&#xca;" horiz-adv-x="511" 
d="M500 0h-443v770h435l-28 -95h-291v-210h255v-96h-255v-273h296zM389 795h-76l-44 67l-46 -67h-76l88 137h67z" />
    <glyph glyph-name="Edieresis" unicode="&#xcb;" horiz-adv-x="511" 
d="M500 0h-443v770h435l-28 -95h-291v-210h255v-96h-255v-273h296zM390 792h-90v100h90v-100zM236 792h-90v100h90v-100z" />
    <glyph glyph-name="Igrave" unicode="&#xcc;" horiz-adv-x="235" 
d="M177 0h-119v770h119v-770zM157 802h-82l-71 147h101z" />
    <glyph glyph-name="Iacute" unicode="&#xcd;" horiz-adv-x="235" 
d="M177 0h-119v770h119v-770zM238 933l-84 -138h-84l63 138h105z" />
    <glyph glyph-name="Icircumflex" unicode="&#xce;" horiz-adv-x="235" 
d="M177 0h-119v770h119v-770zM239 795h-76l-44 67l-46 -67h-76l88 137h67z" />
    <glyph glyph-name="Idieresis" unicode="&#xcf;" horiz-adv-x="235" 
d="M177 0h-119v770h119v-770zM238 795h-90v100h90v-100zM84 795h-90v100h90v-100z" />
    <glyph glyph-name="Eth" unicode="&#xd0;" horiz-adv-x="596" 
d="M554 382q0 -214 -61.5 -298t-214.5 -84h-217v351h-47v85h47v334h216q149 0 213 -86t64 -302zM430 380q0 169 -35.5 233.5t-111.5 64.5h-104v-242h98v-85h-98v-257h103q78 0 113 60t35 226z" />
    <glyph glyph-name="Ntilde" unicode="&#xd1;" horiz-adv-x="595" 
d="M540 0h-125l-209 472q-3 13 -19.5 51.5t-17.5 45.5q2 -30 2 -85v-484h-114v770h128l206 -444q1 -5 17.5 -51t18.5 -56q0 11 -0.5 59.5t-0.5 54.5v437h114v-770zM446 894q1 -47 -20 -74.5t-54 -27.5q-28 0 -66 20q-29 17 -43 17q-23 0 -25 -34h-59q-1 47 20.5 74.5
t54.5 27.5q26 0 66 -20q25 -17 42 -17q23 0 25 34h59z" />
    <glyph glyph-name="Ograve" unicode="&#xd2;" horiz-adv-x="596" 
d="M556 387q0 -112 -17.5 -190t-52.5 -122.5t-80.5 -63.5t-107.5 -19q-128 0 -193.5 89t-65.5 306q0 112 17.5 189t52.5 120.5t81 62t108 18.5q63 0 108 -18.5t80 -61.5t52.5 -120.5t17.5 -189.5zM436 386q0 114 -18 180.5t-46.5 90t-73.5 23.5q-69 0 -104 -64.5t-35 -229.5
q0 -114 17.5 -181t46.5 -91.5t75 -24.5q70 0 104 64.5t34 232.5zM334 802h-82l-71 147h101z" />
    <glyph glyph-name="Oacute" unicode="&#xd3;" horiz-adv-x="596" 
d="M556 387q0 -112 -17.5 -190t-52.5 -122.5t-80.5 -63.5t-107.5 -19q-128 0 -193.5 89t-65.5 306q0 112 17.5 189t52.5 120.5t81 62t108 18.5q63 0 108 -18.5t80 -61.5t52.5 -120.5t17.5 -189.5zM436 386q0 114 -18 180.5t-46.5 90t-73.5 23.5q-69 0 -104 -64.5t-35 -229.5
q0 -114 17.5 -181t46.5 -91.5t75 -24.5q70 0 104 64.5t34 232.5zM414 933l-84 -138h-84l63 138h105z" />
    <glyph glyph-name="Ocircumflex" unicode="&#xd4;" horiz-adv-x="596" 
d="M556 387q0 -112 -17.5 -190t-52.5 -122.5t-80.5 -63.5t-107.5 -19q-128 0 -193.5 89t-65.5 306q0 112 17.5 189t52.5 120.5t81 62t108 18.5q63 0 108 -18.5t80 -61.5t52.5 -120.5t17.5 -189.5zM436 386q0 114 -18 180.5t-46.5 90t-73.5 23.5q-69 0 -104 -64.5t-35 -229.5
q0 -114 17.5 -181t46.5 -91.5t75 -24.5q70 0 104 64.5t34 232.5zM418 796h-76l-44 67l-46 -67h-76l88 137h67z" />
    <glyph glyph-name="Otilde" unicode="&#xd5;" horiz-adv-x="596" 
d="M556 387q0 -112 -17.5 -190t-52.5 -122.5t-80.5 -63.5t-107.5 -19q-128 0 -193.5 89t-65.5 306q0 112 17.5 189t52.5 120.5t81 62t108 18.5q63 0 108 -18.5t80 -61.5t52.5 -120.5t17.5 -189.5zM436 386q0 114 -18 180.5t-46.5 90t-73.5 23.5q-69 0 -104 -64.5t-35 -229.5
q0 -114 17.5 -181t46.5 -91.5t75 -24.5q70 0 104 64.5t34 232.5zM433 894q1 -47 -20 -74.5t-54 -27.5q-28 0 -66 20q-29 17 -43 17q-23 0 -25 -34h-59q-1 47 20.5 74.5t54.5 27.5q26 0 66 -20q26 -17 42 -17q23 0 25 34h59z" />
    <glyph glyph-name="Odieresis" unicode="&#xd6;" horiz-adv-x="596" 
d="M556 387q0 -112 -17.5 -190t-52.5 -122.5t-80.5 -63.5t-107.5 -19q-128 0 -193.5 89t-65.5 306q0 112 17.5 189t52.5 120.5t81 62t108 18.5q63 0 108 -18.5t80 -61.5t52.5 -120.5t17.5 -189.5zM436 386q0 114 -18 180.5t-46.5 90t-73.5 23.5q-69 0 -104 -64.5t-35 -229.5
q0 -114 17.5 -181t46.5 -91.5t75 -24.5q70 0 104 64.5t34 232.5zM420 795h-90v100h90v-100zM266 795h-90v100h90v-100z" />
    <glyph glyph-name="multiply" unicode="&#xd7;" 
d="M507 507q0 -59 -23 -100.5t-56 -41.5q-31 0 -53.5 41.5t-22.5 100.5q0 60 22.5 103t53.5 43q33 0 56 -43t23 -103zM284 507q0 -59 -23.5 -100.5t-55.5 -41.5q-31 0 -53.5 41.5t-22.5 100.5q0 60 22.5 103t53.5 43q32 0 55.5 -43t23.5 -103zM619 210q0 -60 -23 -101
t-55 -41q-33 0 -56 41t-23 101q0 59 23.5 102t55.5 43t55 -43t23 -102zM396 210q0 -59 -22.5 -100.5t-53.5 -41.5q-33 0 -56 41t-23 101q0 59 23.5 102t55.5 43q31 0 53.5 -43t22.5 -102zM170 209q0 -59 -22.5 -100t-55.5 -41q-32 0 -55 41t-23 100q0 60 23 103t55 43
q33 0 55.5 -43t22.5 -103z" />
    <glyph glyph-name="Oslash" unicode="&#xd8;" horiz-adv-x="596" 
d="M443 739q113 -78 113 -352q0 -112 -17.5 -190t-52.5 -122.5t-80.5 -63.5t-107.5 -19q-54 0 -95 14l-18 -50h-64l27 79q-109 84 -109 352q0 112 17.5 189t52.5 120.5t81 62t108 18.5q50 0 90 -12l11 35h63zM191 154l167 517q-24 14 -60 14q-70 0 -105.5 -66t-35.5 -233
q0 -161 34 -232zM401 625l-169 -523q26 -18 66 -18q47 0 76.5 25t47 93t17.5 184q0 171 -38 239z" />
    <glyph glyph-name="Ugrave" unicode="&#xd9;" horiz-adv-x="574" 
d="M519 260q0 -132 -54.5 -199.5t-178.5 -67.5q-125 0 -180 65.5t-55 205.5v506h117v-507q0 -91 26.5 -132t91.5 -41t90.5 41.5t25.5 133.5v505h117v-510zM331 802h-82l-71 147h101z" />
    <glyph glyph-name="Uacute" unicode="&#xda;" horiz-adv-x="574" 
d="M519 260q0 -132 -54.5 -199.5t-178.5 -67.5q-125 0 -180 65.5t-55 205.5v506h117v-507q0 -91 26.5 -132t91.5 -41t90.5 41.5t25.5 133.5v505h117v-510zM399 933l-84 -138h-84l63 138h105z" />
    <glyph glyph-name="Ucircumflex" unicode="&#xdb;" horiz-adv-x="574" 
d="M519 260q0 -132 -54.5 -199.5t-178.5 -67.5q-125 0 -180 65.5t-55 205.5v506h117v-507q0 -91 26.5 -132t91.5 -41t90.5 41.5t25.5 133.5v505h117v-510zM409 796h-76l-44 67l-46 -67h-76l88 137h67z" />
    <glyph glyph-name="Udieresis" unicode="&#xdc;" horiz-adv-x="574" 
d="M519 260q0 -132 -54.5 -199.5t-178.5 -67.5q-125 0 -180 65.5t-55 205.5v506h117v-507q0 -91 26.5 -132t91.5 -41t90.5 41.5t25.5 133.5v505h117v-510zM410 795h-90v100h90v-100zM256 795h-90v100h90v-100z" />
    <glyph glyph-name="Yacute" unicode="&#xdd;" horiz-adv-x="533" 
d="M529 770l-201 -491v-279h-120v280l-204 490h130l104 -264q0 -2 15.5 -46.5t18.5 -61.5q2 12 8.5 35t14 45.5t8.5 26.5l102 265h124zM387 919l-84 -138h-84l63 138h105z" />
    <glyph glyph-name="Thorn" unicode="&#xde;" horiz-adv-x="551" 
d="M527 443q0 -223 -203 -223h-148v-220h-119v770h119v-108h142q103 0 156 -48.5t53 -170.5zM406 439q0 65 -24 96.5t-77 31.5h-130v-253h123q56 0 82 28.5t26 96.5z" />
    <glyph glyph-name="germandbls" unicode="&#xdf;" horiz-adv-x="611" 
d="M409 -5q-85 0 -128.5 34t-55.5 106q-2 10 -2 28l89 22q0 -4 0.5 -13.5t0.5 -11.5q9 -48 30.5 -67.5t59.5 -19.5q83 0 83 74q-1 37 -15 57t-54 34q-46 15 -75 23q-115 39 -115 143q0 55 32.5 89.5t89.5 39.5v93q0 62 -77 62q-47 0 -69 -27t-22 -67v-594h-101v454h-64v81
h64v77q0 72 51.5 115t141.5 43q78 0 125 -38t46 -101v-163q-70 1 -95 -14.5t-25 -52.5q0 -28 16 -42.5t60 -30.5q30 -10 86 -25q55 -18 81.5 -54.5t26.5 -97.5q0 -79 -48.5 -117.5t-136.5 -38.5z" />
    <glyph glyph-name="agrave" unicode="&#xe0;" horiz-adv-x="455" 
d="M440 3q-28 -5 -64 -5q-60 0 -75 58q-49 -61 -138 -61q-138 0 -138 159q0 74 44 116t130 67q59 17 77.5 30t19.5 40q0 26 -18.5 42.5t-58.5 16.5q-76 0 -97 -91l-77 36q14 62 60.5 97t119.5 35q87 0 129 -40.5t42 -130.5v-247q0 -49 22 -50h22v-72zM294 173q3 41 3 123
q-23 -17 -72 -27q-49 -18 -72 -42.5t-23 -67.5q0 -44 16.5 -63t51.5 -19q42 0 66.5 25t29.5 71zM259 571h-82l-71 147h101z" />
    <glyph glyph-name="aacute" unicode="&#xe1;" horiz-adv-x="455" 
d="M440 3q-28 -5 -64 -5q-60 0 -75 58q-49 -61 -138 -61q-138 0 -138 159q0 74 44 116t130 67q59 17 77.5 30t19.5 40q0 26 -18.5 42.5t-58.5 16.5q-76 0 -97 -91l-77 36q14 62 60.5 97t119.5 35q87 0 129 -40.5t42 -130.5v-247q0 -49 22 -50h22v-72zM294 173q3 41 3 123
q-23 -17 -72 -27q-49 -18 -72 -42.5t-23 -67.5q0 -44 16.5 -63t51.5 -19q42 0 66.5 25t29.5 71zM331 702l-84 -138h-84l63 138h105z" />
    <glyph glyph-name="acircumflex" unicode="&#xe2;" horiz-adv-x="455" 
d="M440 3q-28 -5 -64 -5q-60 0 -75 58q-49 -61 -138 -61q-138 0 -138 159q0 74 44 116t130 67q59 17 77.5 30t19.5 40q0 26 -18.5 42.5t-58.5 16.5q-76 0 -97 -91l-77 36q14 62 60.5 97t119.5 35q87 0 129 -40.5t42 -130.5v-247q0 -49 22 -50h22v-72zM294 173q3 41 3 123
q-23 -17 -72 -27q-49 -18 -72 -42.5t-23 -67.5q0 -44 16.5 -63t51.5 -19q42 0 66.5 25t29.5 71zM340 564h-76l-44 67l-46 -67h-76l88 137h67z" />
    <glyph glyph-name="atilde" unicode="&#xe3;" horiz-adv-x="455" 
d="M440 3q-28 -5 -64 -5q-60 0 -75 58q-49 -61 -138 -61q-138 0 -138 159q0 74 44 116t130 67q59 17 77.5 30t19.5 40q0 26 -18.5 42.5t-58.5 16.5q-76 0 -97 -91l-77 36q14 62 60.5 97t119.5 35q87 0 129 -40.5t42 -130.5v-247q0 -49 22 -50h22v-72zM294 173q3 41 3 123
q-23 -17 -72 -27q-49 -18 -72 -42.5t-23 -67.5q0 -44 16.5 -63t51.5 -19q42 0 66.5 25t29.5 71zM354 664q1 -47 -20 -74.5t-54 -27.5q-28 0 -66 20q-29 17 -43 17q-23 0 -25 -34h-59q-1 47 20.5 74.5t54.5 27.5q26 0 66 -20q26 -17 42 -17q23 0 25 34h59z" />
    <glyph glyph-name="adieresis" unicode="&#xe4;" horiz-adv-x="455" 
d="M440 3q-28 -5 -64 -5q-60 0 -75 58q-49 -61 -138 -61q-138 0 -138 159q0 74 44 116t130 67q59 17 77.5 30t19.5 40q0 26 -18.5 42.5t-58.5 16.5q-76 0 -97 -91l-77 36q14 62 60.5 97t119.5 35q87 0 129 -40.5t42 -130.5v-247q0 -49 22 -50h22v-72zM294 173q3 41 3 123
q-23 -17 -72 -27q-49 -18 -72 -42.5t-23 -67.5q0 -44 16.5 -63t51.5 -19q42 0 66.5 25t29.5 71zM343 564h-90v100h90v-100zM189 564h-90v100h90v-100z" />
    <glyph glyph-name="aring" unicode="&#xe5;" horiz-adv-x="456" 
d="M440 3q-28 -5 -64 -5q-60 0 -75 58q-49 -61 -138 -61q-138 0 -138 159q0 74 44 116t130 67q59 17 77.5 30t19.5 40q0 26 -18.5 42.5t-58.5 16.5q-76 0 -97 -91l-77 36q14 62 60.5 97t119.5 35q87 0 129 -40.5t42 -130.5v-247q0 -49 22 -50h22v-72zM294 173q3 41 3 123
q-23 -17 -72 -27q-49 -18 -72 -42.5t-23 -67.5q0 -44 16.5 -63t51.5 -19q42 0 66.5 25t29.5 71zM319 653q0 -38 -27.5 -66t-66.5 -28q-38 0 -66 28t-28 66q0 39 28 67t66 28q39 0 66.5 -28t27.5 -67zM269 654q0 18 -12.5 30.5t-31.5 12.5q-17 0 -30 -13t-13 -30
q0 -18 13 -31t30 -13q19 0 31.5 13t12.5 31z" />
    <glyph glyph-name="ae" unicode="&#xe6;" horiz-adv-x="696" 
d="M664 173q-18 -178 -186 -178q-114 0 -150 85q-45 -86 -163 -86q-140 0 -140 157q0 74 42.5 116.5t130.5 69.5q52 16 75.5 30.5t25.5 38.5q-2 60 -78 60q-78 0 -99 -91l-77 36q14 62 60.5 97t119.5 35q98 0 127 -61q15 25 48 43t81 18q95 0 141.5 -65.5t45.5 -225.5h-284
q1 -101 24.5 -141.5t69.5 -40.5q43 0 62 27.5t24 90.5zM567 322q-4 84 -25.5 116t-61.5 32q-44 0 -67.5 -35.5t-27.5 -112.5h182zM298 172q-5 85 -1 123q-19 -17 -68 -26q-52 -18 -76 -42t-24 -68q0 -84 69 -84q42 0 68.5 25.5t31.5 71.5z" />
    <glyph glyph-name="ccedilla" unicode="&#xe7;" horiz-adv-x="443" 
d="M206 -3q-88 7 -130 69t-42 201q0 146 49 211t149 65q167 0 186 -176l-101 -16q-5 60 -25 86.5t-59 26.5q-48 0 -71.5 -40.5t-23.5 -153.5q0 -106 24 -151.5t71 -45.5q41 0 60 30.5t26 99.5l101 -15q-9 -95 -49 -141t-120 -50v-21q31 -1 53 -16t22 -44q0 -36 -25.5 -54
t-69.5 -18q-55 0 -93 20l21 45q26 -16 63 -16t37 22t-53 22v60z" />
    <glyph glyph-name="egrave" unicode="&#xe8;" horiz-adv-x="451" 
d="M423 252h-288q2 -100 26 -141t70 -41q41 0 61 27.5t26 89.5l100 -15q-20 -177 -188 -177q-99 0 -147.5 63.5t-48.5 216.5q0 268 198 268q96 0 143.5 -65t47.5 -226zM321 322q-4 84 -26.5 116t-63.5 32q-46 0 -68 -43t-26 -105h184zM266 571h-82l-71 147h101z" />
    <glyph glyph-name="eacute" unicode="&#xe9;" horiz-adv-x="451" 
d="M423 252h-288q2 -100 26 -141t70 -41q41 0 61 27.5t26 89.5l100 -15q-20 -177 -188 -177q-99 0 -147.5 63.5t-48.5 216.5q0 268 198 268q96 0 143.5 -65t47.5 -226zM321 322q-4 84 -26.5 116t-63.5 32q-46 0 -68 -43t-26 -105h184zM351 702l-84 -138h-84l63 138h105z" />
    <glyph glyph-name="ecircumflex" unicode="&#xea;" horiz-adv-x="451" 
d="M423 252h-288q2 -100 26 -141t70 -41q41 0 61 27.5t26 89.5l100 -15q-20 -177 -188 -177q-99 0 -147.5 63.5t-48.5 216.5q0 268 198 268q96 0 143.5 -65t47.5 -226zM321 322q-4 84 -26.5 116t-63.5 32q-46 0 -68 -43t-26 -105h184zM350 564h-76l-44 67l-46 -67h-76
l88 137h67z" />
    <glyph glyph-name="edieresis" unicode="&#xeb;" horiz-adv-x="451" 
d="M423 252h-288q2 -100 26 -141t70 -41q41 0 61 27.5t26 89.5l100 -15q-20 -177 -188 -177q-99 0 -147.5 63.5t-48.5 216.5q0 268 198 268q96 0 143.5 -65t47.5 -226zM321 322q-4 84 -26.5 116t-63.5 32q-46 0 -68 -43t-26 -105h184zM352 564h-90v100h90v-100zM198 564h-90
v100h90v-100z" />
    <glyph glyph-name="igrave" unicode="&#xec;" horiz-adv-x="207" 
d="M155 0h-103v538h103v-538zM138 571h-82l-71 147h101z" />
    <glyph glyph-name="iacute" unicode="&#xed;" horiz-adv-x="207" 
d="M155 0h-103v538h103v-538zM226 702l-84 -138h-84l63 138h105z" />
    <glyph glyph-name="icircumflex" unicode="&#xee;" horiz-adv-x="207" 
d="M155 0h-103v538h103v-538zM223 564h-76l-44 67l-46 -67h-76l88 137h67z" />
    <glyph glyph-name="idieresis" unicode="&#xef;" horiz-adv-x="207" 
d="M155 0h-103v538h103v-538zM225 564h-90v100h90v-100zM71 564h-90v100h90v-100z" />
    <glyph glyph-name="eth" unicode="&#xf0;" horiz-adv-x="525" 
d="M497 687l-50 -29q43 -79 44 -222q2 -70 0 -167q-2 -133 -61 -203.5t-169 -70.5q-227 0 -227 276q0 123 49 177t145 54q45 0 85 -18t62 -53q-3 108 -28 167l-75 -42v56l53 32q-22 40 -67 40t-64.5 -25.5t-26.5 -72.5l-111 -11q6 84 53.5 140.5t147.5 56.5q108 0 163 -71
l77 44v-58zM368 258q0 155 -109 155q-55 0 -79 -34t-24 -121q0 -96 26.5 -134t81.5 -38q104 0 104 172z" />
    <glyph glyph-name="ntilde" unicode="&#xf1;" horiz-adv-x="477" 
d="M425 0h-102v369q0 93 -75 93q-35 0 -60.5 -23.5t-31.5 -66.5v-372h-103v538h103v-63q45 68 128 68q70 0 105.5 -39t35.5 -124v-380zM376 666q1 -47 -20 -74.5t-54 -27.5q-28 0 -66 20q-29 17 -43 17q-23 0 -25 -34h-59q-1 47 20.5 74.5t54.5 27.5q26 0 66 -20
q25 -17 42 -17q23 0 25 34h59z" />
    <glyph glyph-name="ograve" unicode="&#xf2;" horiz-adv-x="469" 
d="M435 269q0 -144 -50 -209t-151 -65q-103 0 -151.5 64.5t-48.5 209.5q0 144 49 209t152 65q102 0 151 -64.5t49 -209.5zM331 269q0 106 -24 151t-72 45q-49 0 -73.5 -45.5t-24.5 -150.5q0 -107 24.5 -151.5t72.5 -44.5q51 0 74 44t23 152zM275 571h-82l-71 147h101z" />
    <glyph glyph-name="oacute" unicode="&#xf3;" horiz-adv-x="469" 
d="M435 269q0 -144 -50 -209t-151 -65q-103 0 -151.5 64.5t-48.5 209.5q0 144 49 209t152 65q102 0 151 -64.5t49 -209.5zM331 269q0 106 -24 151t-72 45q-49 0 -73.5 -45.5t-24.5 -150.5q0 -107 24.5 -151.5t72.5 -44.5q51 0 74 44t23 152zM353 702l-84 -138h-84l63 138
h105z" />
    <glyph glyph-name="ocircumflex" unicode="&#xf4;" horiz-adv-x="469" 
d="M435 269q0 -144 -50 -209t-151 -65q-103 0 -151.5 64.5t-48.5 209.5q0 144 49 209t152 65q102 0 151 -64.5t49 -209.5zM331 269q0 106 -24 151t-72 45q-49 0 -73.5 -45.5t-24.5 -150.5q0 -107 24.5 -151.5t72.5 -44.5q51 0 74 44t23 152zM353 564h-76l-44 67l-46 -67h-76
l88 137h67z" />
    <glyph glyph-name="otilde" unicode="&#xf5;" horiz-adv-x="469" 
d="M435 269q0 -144 -50 -209t-151 -65q-103 0 -151.5 64.5t-48.5 209.5q0 144 49 209t152 65q102 0 151 -64.5t49 -209.5zM331 269q0 106 -24 151t-72 45q-49 0 -73.5 -45.5t-24.5 -150.5q0 -107 24.5 -151.5t72.5 -44.5q51 0 74 44t23 152zM367 664q1 -47 -20 -74.5
t-54 -27.5q-28 0 -66 20q-29 17 -43 17q-23 0 -25 -34h-59q-1 47 20.5 74.5t54.5 27.5q26 0 66 -20q25 -17 42 -17q23 0 25 34h59z" />
    <glyph glyph-name="odieresis" unicode="&#xf6;" horiz-adv-x="469" 
d="M435 269q0 -144 -50 -209t-151 -65q-103 0 -151.5 64.5t-48.5 209.5q0 144 49 209t152 65q102 0 151 -64.5t49 -209.5zM331 269q0 106 -24 151t-72 45q-49 0 -73.5 -45.5t-24.5 -150.5q0 -107 24.5 -151.5t72.5 -44.5q51 0 74 44t23 152zM356 564h-90v100h90v-100z
M202 564h-90v100h90v-100z" />
    <glyph glyph-name="divide" unicode="&#xf7;" 
d="M507 507q0 -59 -23 -100.5t-56 -41.5q-31 0 -53.5 41.5t-22.5 100.5q0 60 22.5 103t53.5 43q33 0 56 -43t23 -103zM284 507q0 -59 -23.5 -100.5t-55.5 -41.5q-31 0 -53.5 41.5t-22.5 100.5q0 60 22.5 103t53.5 43q32 0 55.5 -43t23.5 -103zM619 210q0 -60 -23 -101
t-55 -41q-33 0 -56 41t-23 101q0 59 23.5 102t55.5 43t55 -43t23 -102zM396 210q0 -59 -22.5 -100.5t-53.5 -41.5q-33 0 -56 41t-23 101q0 59 23.5 102t55.5 43q31 0 53.5 -43t22.5 -102zM170 209q0 -59 -22.5 -100t-55.5 -41q-32 0 -55 41t-23 100q0 60 23 103t55 43
q33 0 55.5 -43t22.5 -103z" />
    <glyph glyph-name="oslash" unicode="&#xf8;" horiz-adv-x="469" 
d="M357 508q78 -60 78 -239q0 -144 -50 -209t-151 -65q-44 0 -75 10l-24 -58h-53l33 80q-81 59 -81 242q0 144 49 209t152 65q43 0 78 -12l19 46h53zM158 123l126 327q-20 16 -49 16q-49 0 -74 -45.5t-25 -151.5q0 -97 22 -146zM314 407l-126 -322q21 -12 46 -12
q51 0 74.5 44.5t23.5 151.5q0 91 -18 138z" />
    <glyph glyph-name="ugrave" unicode="&#xf9;" horiz-adv-x="466" 
d="M416 0h-102v60q-18 -28 -51.5 -46.5t-76.5 -18.5q-142 0 -142 164v379h102v-371q0 -92 75 -92q37 0 63 24.5t30 64.5v374h102v-538zM273 571h-82l-71 147h101z" />
    <glyph glyph-name="uacute" unicode="&#xfa;" horiz-adv-x="466" 
d="M416 0h-102v60q-18 -28 -51.5 -46.5t-76.5 -18.5q-142 0 -142 164v379h102v-371q0 -92 75 -92q37 0 63 24.5t30 64.5v374h102v-538zM346 702l-84 -138h-84l63 138h105z" />
    <glyph glyph-name="ucircumflex" unicode="&#xfb;" horiz-adv-x="466" 
d="M416 0h-102v60q-18 -28 -51.5 -46.5t-76.5 -18.5q-142 0 -142 164v379h102v-371q0 -92 75 -92q37 0 63 24.5t30 64.5v374h102v-538zM350 564h-76l-44 67l-46 -67h-76l88 137h67z" />
    <glyph glyph-name="udieresis" unicode="&#xfc;" horiz-adv-x="466" 
d="M416 0h-102v60q-18 -28 -51.5 -46.5t-76.5 -18.5q-142 0 -142 164v379h102v-371q0 -92 75 -92q37 0 63 24.5t30 64.5v374h102v-538zM352 564h-90v100h90v-100zM198 564h-90v100h90v-100z" />
    <glyph glyph-name="yacute" unicode="&#xfd;" horiz-adv-x="417" 
d="M414 538q-123 -486 -156 -598q-34 -112 -150 -112q-39 0 -55 7l7 81q8 -7 40 -7q25 0 40 18.5t23 64.5l-157 546h107l85 -311q18 -101 18 -106q1 14 9 57t9 48l77 312h103zM328 702l-84 -138h-84l63 138h105z" />
    <glyph glyph-name="thorn" unicode="&#xfe;" horiz-adv-x="476" 
d="M442 267q0 -151 -43 -211t-124 -60q-84 0 -119 52v-208h-102v930h101v-288q35 60 119 60q54 0 89 -21.5t57 -84t22 -169.5zM339 270q0 111 -22 153t-70 42q-86 0 -91 -109q0 -3 -0.5 -34.5t-0.5 -50.5q0 -23 0.5 -59t0.5 -38q2 -48 27 -73.5t63 -25.5q50 0 71.5 41.5
t21.5 153.5z" />
    <glyph glyph-name="ydieresis" unicode="&#xff;" horiz-adv-x="417" 
d="M414 538q-123 -486 -156 -598q-34 -112 -150 -112q-39 0 -55 7l7 81q8 -7 40 -7q25 0 40 18.5t23 64.5l-157 546h107l85 -311q18 -101 18 -106q1 14 9 57t9 48l77 312h103zM336 563h-90v100h90v-100zM182 563h-90v100h90v-100z" />
    <glyph glyph-name="dotlessi" unicode="&#x131;" horiz-adv-x="207" 
d="M155 0h-103v538h103v-538z" />
    <glyph glyph-name="Lslash" unicode="&#x141;" horiz-adv-x="487" 
d="M481 0h-410v316l-15 -5q-14 -5 -28 -11l-15 -5v79l58 21v375h118v-324l142 49v-79l-142 -48v-270h261z" />
    <glyph glyph-name="lslash" unicode="&#x142;" horiz-adv-x="241" 
d="M229 388l-57 -27v-361h-103v314l-58 -27v73l58 27v383h103v-335l57 27v-74z" />
    <glyph glyph-name="OE" unicode="&#x152;" horiz-adv-x="832" 
d="M825 0l-425 -1v28q-13 -12 -43.5 -23.5t-66.5 -11.5q-60 0 -104 19t-78 63t-51.5 121.5t-17.5 188.5q0 112 17.5 190t52.5 121.5t80 62.5t106 19q62 0 105 -32v25h416l-27 -95h-278v-210h241v-96h-242v-273h285zM398 163v443q-27 75 -100 75q-45 0 -74 -24.5t-47 -91.5
t-18 -181t17.5 -181t46.5 -91.5t75 -24.5q73 0 100 76z" />
    <glyph glyph-name="oe" unicode="&#x153;" horiz-adv-x="741" 
d="M708 172q-20 -177 -188 -177q-99 0 -141 76q-51 -76 -145 -76q-103 0 -151.5 64.5t-48.5 209.5q0 144 49 209t152 65q96 0 146 -74q41 74 141 74q96 0 143.5 -65.5t46.5 -225.5h-287q2 -100 26 -141t70 -41q40 0 60.5 27.5t25.5 89.5zM611 322q-4 85 -26.5 116.5
t-63.5 31.5q-46 0 -68 -37t-26 -111h184zM330 269q0 107 -24 151.5t-71 44.5q-49 0 -73.5 -45.5t-24.5 -150.5q0 -107 24.5 -151.5t72.5 -44.5q51 0 73.5 44t22.5 152z" />
    <glyph glyph-name="Scaron" unicode="&#x160;" horiz-adv-x="550" 
d="M526 226q0 -116 -58 -173.5t-191 -57.5q-232 0 -251 196q-1 15 1 50l133 23q-4 -40 -1 -64q15 -115 125 -115q119 0 119 126q0 59 -22 89.5t-86 55.5q-15 4 -44.5 15t-46.5 16q-86 26 -125 70.5t-39 122.5q0 93 57.5 145t172.5 52q193 0 225 -179q1 -6 3 -20l-121 -24
q0 2 -1.5 21t-2.5 23q-26 89 -109 89q-51 0 -77.5 -27t-26.5 -74q0 -45 22 -70t86 -45q24 -8 84 -29q93 -33 133.5 -80.5t40.5 -135.5zM388 934l-88 -137h-66l-88 137h76l45 -70l45 70h76z" />
    <glyph glyph-name="scaron" unicode="&#x161;" horiz-adv-x="413" 
d="M391 151q0 -78 -50 -117t-134 -39q-86 0 -131 35t-58 108q0 2 -0.5 13.5t-0.5 15.5l92 22q-2 -14 1 -26q8 -50 30.5 -70t62.5 -20q80 0 80 75q0 38 -13.5 58t-52.5 33q-14 5 -39 11.5t-38 10.5q-57 18 -86.5 50.5t-29.5 88.5q0 60 47.5 101.5t132.5 41.5q139 0 168 -116
q0 -2 2.5 -9.5l3.5 -10.5l-91 -26q-2 12 -4 17q-16 67 -81 67q-35 0 -54 -17.5t-19 -49.5q0 -29 16 -43.5t62 -28.5q7 -2 37.5 -11t44.5 -14q54 -18 78 -53.5t24 -96.5zM322 701l-88 -137h-66l-88 137h76l45 -70l45 70h76z" />
    <glyph glyph-name="Ydieresis" unicode="&#x178;" horiz-adv-x="533" 
d="M529 770l-201 -491v-279h-120v280l-204 490h130l104 -264q0 -2 15.5 -46.5t18.5 -61.5q2 12 8.5 35t14 45.5t8.5 26.5l102 265h124zM394 796h-90v100h90v-100zM240 796h-90v100h90v-100z" />
    <glyph glyph-name="Zcaron" unicode="&#x17d;" horiz-adv-x="511" 
d="M487 0h-462v85l327 589h-311v96h449v-93l-319 -580h316v-97zM382 934l-88 -137h-66l-88 137h76l45 -70l45 70h76z" />
    <glyph glyph-name="zcaron" unicode="&#x17e;" horiz-adv-x="397" 
d="M374 0h-353v71l226 385h-214v82h338v-76l-227 -381h230v-81zM325 701l-88 -137h-66l-88 137h76l45 -70l45 70h76z" />
    <glyph glyph-name="florin" unicode="&#x192;" horiz-adv-x="278" 
d="M267 686q-3 1 -29 1t-37.5 -13t-11.5 -45v-94h77v-81h-77v-485q0 -129 -125 -129q-52 0 -58 1v88q1 -1 31 -1q27 0 38 14t11 48v464h-73v81h73v112q0 123 120 123h61v-84z" />
    <glyph glyph-name="circumflex" unicode="&#x2c6;" horiz-adv-x="313" 
d="M278 575h-76l-44 67l-46 -67h-76l88 137h67z" />
    <glyph glyph-name="caron" unicode="&#x2c7;" horiz-adv-x="313" 
d="M277 712l-88 -137h-66l-88 137h76l45 -70l45 70h76z" />
    <glyph glyph-name="breve" unicode="&#x2d8;" horiz-adv-x="313" 
d="M283 682q-6 -99 -125 -99q-121 0 -126 99h61q4 -38 65 -38t63 38h62z" />
    <glyph glyph-name="dotaccent" unicode="&#x2d9;" horiz-adv-x="313" 
d="M203 585h-94v101h94v-101z" />
    <glyph glyph-name="ring" unicode="&#x2da;" horiz-adv-x="313" 
d="M250 662q0 -38 -27.5 -66t-66.5 -28q-38 0 -66 28t-28 66q0 39 28 67t66 28q39 0 66.5 -28t27.5 -67zM200 663q0 17 -13 30t-31 13q-17 0 -30 -13t-13 -30q0 -18 13 -31t30 -13q19 0 31.5 13t12.5 31z" />
    <glyph glyph-name="ogonek" unicode="&#x2db;" horiz-adv-x="313" 
d="M263 -127q-34 -22 -94 -22q-41 0 -65.5 19t-24.5 53q0 35 27.5 57t78.5 22v-47q-42 -2 -42 -28q0 -24 35 -24q36 0 63 16z" />
    <glyph glyph-name="tilde" unicode="&#x2dc;" horiz-adv-x="313" 
d="M292 682q1 -47 -20 -74.5t-54 -27.5q-28 0 -66 20q-29 17 -43 17q-23 0 -25 -34h-59q-1 47 20.5 74.5t54.5 27.5q26 0 66 -20q25 -17 42 -17q23 0 25 34h59z" />
    <glyph glyph-name="hungarumlaut" unicode="&#x2dd;" horiz-adv-x="313" 
d="M295 716l-77 -141h-60l59 141h78zM191 716l-77 -141h-61l59 141h79z" />
    <glyph glyph-name="Delta" unicode="&#x394;" 
d="M507 507q0 -59 -23 -100.5t-56 -41.5q-31 0 -53.5 41.5t-22.5 100.5q0 60 22.5 103t53.5 43q33 0 56 -43t23 -103zM284 507q0 -59 -23.5 -100.5t-55.5 -41.5q-31 0 -53.5 41.5t-22.5 100.5q0 60 22.5 103t53.5 43q32 0 55.5 -43t23.5 -103zM619 210q0 -60 -23 -101
t-55 -41q-33 0 -56 41t-23 101q0 59 23.5 102t55.5 43t55 -43t23 -102zM396 210q0 -59 -22.5 -100.5t-53.5 -41.5q-33 0 -56 41t-23 101q0 59 23.5 102t55.5 43q31 0 53.5 -43t22.5 -102zM170 209q0 -59 -22.5 -100t-55.5 -41q-32 0 -55 41t-23 100q0 60 23 103t55 43
q33 0 55.5 -43t22.5 -103z" />
    <glyph glyph-name="Delta" unicode="&#x2206;" 
d="M507 507q0 -59 -23 -100.5t-56 -41.5q-31 0 -53.5 41.5t-22.5 100.5q0 60 22.5 103t53.5 43q33 0 56 -43t23 -103zM284 507q0 -59 -23.5 -100.5t-55.5 -41.5q-31 0 -53.5 41.5t-22.5 100.5q0 60 22.5 103t53.5 43q32 0 55.5 -43t23.5 -103zM619 210q0 -60 -23 -101
t-55 -41q-33 0 -56 41t-23 101q0 59 23.5 102t55.5 43t55 -43t23 -102zM396 210q0 -59 -22.5 -100.5t-53.5 -41.5q-33 0 -56 41t-23 101q0 59 23.5 102t55.5 43q31 0 53.5 -43t22.5 -102zM170 209q0 -59 -22.5 -100t-55.5 -41q-32 0 -55 41t-23 100q0 60 23 103t55 43
q33 0 55.5 -43t22.5 -103z" />
    <glyph glyph-name="Omega" unicode="&#x3a9;" 
d="M507 507q0 -59 -23 -100.5t-56 -41.5q-31 0 -53.5 41.5t-22.5 100.5q0 60 22.5 103t53.5 43q33 0 56 -43t23 -103zM284 507q0 -59 -23.5 -100.5t-55.5 -41.5q-31 0 -53.5 41.5t-22.5 100.5q0 60 22.5 103t53.5 43q32 0 55.5 -43t23.5 -103zM619 210q0 -60 -23 -101
t-55 -41q-33 0 -56 41t-23 101q0 59 23.5 102t55.5 43t55 -43t23 -102zM396 210q0 -59 -22.5 -100.5t-53.5 -41.5q-33 0 -56 41t-23 101q0 59 23.5 102t55.5 43q31 0 53.5 -43t22.5 -102zM170 209q0 -59 -22.5 -100t-55.5 -41q-32 0 -55 41t-23 100q0 60 23 103t55 43
q33 0 55.5 -43t22.5 -103z" />
    <glyph glyph-name="Omega" unicode="&#x2126;" 
d="M507 507q0 -59 -23 -100.5t-56 -41.5q-31 0 -53.5 41.5t-22.5 100.5q0 60 22.5 103t53.5 43q33 0 56 -43t23 -103zM284 507q0 -59 -23.5 -100.5t-55.5 -41.5q-31 0 -53.5 41.5t-22.5 100.5q0 60 22.5 103t53.5 43q32 0 55.5 -43t23.5 -103zM619 210q0 -60 -23 -101
t-55 -41q-33 0 -56 41t-23 101q0 59 23.5 102t55.5 43t55 -43t23 -102zM396 210q0 -59 -22.5 -100.5t-53.5 -41.5q-33 0 -56 41t-23 101q0 59 23.5 102t55.5 43q31 0 53.5 -43t22.5 -102zM170 209q0 -59 -22.5 -100t-55.5 -41q-32 0 -55 41t-23 100q0 60 23 103t55 43
q33 0 55.5 -43t22.5 -103z" />
    <glyph glyph-name="pi" unicode="&#x3c0;" horiz-adv-x="559" 
d="M543 418q0 -70 -15.5 -132t-46 -113.5t-83 -82t-119.5 -30.5q-68 0 -120 29t-82.5 79.5t-45.5 113.5t-15 136q0 103 27 182.5t87.5 128.5t148.5 49q133 0 198.5 -99.5t65.5 -260.5zM487 418q0 142 -50.5 224t-157.5 82q-105 0 -156.5 -83t-51.5 -223q0 -59 11 -111
t34.5 -96.5t65 -71t97.5 -26.5q54 0 95.5 27t65.5 72t35.5 97.5t11.5 108.5zM435 520q0 -56 -34 -89.5t-87 -33.5h-79v-195h-81v442h159q57 0 89.5 -34t32.5 -90zM352 518q0 30 -17 46.5t-46 16.5h-54v-126h54q63 0 63 63z" />
    <glyph glyph-name="endash" unicode="&#x2013;" horiz-adv-x="381" 
d="M340 317h-298v83h298v-83z" />
    <glyph glyph-name="emdash" unicode="&#x2014;" horiz-adv-x="501" 
d="M459 317h-417v83h417v-83z" />
    <glyph glyph-name="quoteleft" unicode="&#x2018;" horiz-adv-x="213" 
d="M173 751q-53 -35 -54 -82h56v-125h-135v121q0 41 25 71t71 43z" />
    <glyph glyph-name="quoteright" unicode="&#x2019;" horiz-adv-x="214" 
d="M176 649q0 -40 -25 -70.5t-70 -43.5l-37 28q52 34 53 83h-56v125h135v-122z" />
    <glyph glyph-name="quotesinglbase" unicode="&#x201a;" horiz-adv-x="214" 
d="M176 4q0 -41 -25 -71t-70 -43l-37 27q52 34 53 83h-56v125h135v-121z" />
    <glyph glyph-name="quotedblleft" unicode="&#x201c;" horiz-adv-x="394" 
d="M354 751q-53 -35 -54 -82h57v-125h-135v121q0 41 24.5 71t71.5 43zM171 751q-53 -35 -54 -82h56v-125h-135v121q0 41 25.5 71t71.5 43z" />
    <glyph glyph-name="quotedblright" unicode="&#x201d;" horiz-adv-x="394" 
d="M357 649q0 -41 -24.5 -71t-70.5 -43l-37 28q53 34 54 83h-56v125h134v-122zM174 649q0 -41 -24.5 -71t-70.5 -43l-37 28q53 34 54 83h-57v125h135v-122z" />
    <glyph glyph-name="quotedblbase" unicode="&#x201e;" horiz-adv-x="394" 
d="M357 4q0 -42 -24.5 -72t-70.5 -42l-37 27q53 34 54 83h-56v125h134v-121zM174 4q0 -88 -95 -114l-37 27q53 34 54 83h-57v125h135v-121z" />
    <glyph glyph-name="dagger" unicode="&#x2020;" horiz-adv-x="339" 
d="M333 387h-115v-367l-48 -220l-49 220v367h-115v82h115v301h97v-301h115v-82z" />
    <glyph glyph-name="daggerdbl" unicode="&#x2021;" horiz-adv-x="339" 
d="M330 272h-116v-255l-44 -217l-45 217v255h-116v79h117v84h-117v79h116v256h89v-256h116v-79h-117v-84h117v-79z" />
    <glyph glyph-name="bullet" unicode="&#x2022;" horiz-adv-x="390" 
d="M359 394q0 -68 -48 -116t-116 -48q-67 0 -115.5 48t-48.5 116t48 116t116 48t116 -48t48 -116z" />
    <glyph glyph-name="ellipsis" unicode="&#x2026;" horiz-adv-x="708" 
d="M652 0h-124v124h124v-124zM416 0h-124v124h124v-124zM180 0h-124v124h124v-124z" />
    <glyph glyph-name="perthousand" unicode="&#x2030;" horiz-adv-x="1326" 
d="M398 526q0 -120 -47 -182.5t-136 -62.5q-95 0 -139.5 61t-44.5 184q0 126 49 185.5t135 59.5q183 0 183 -245zM629 770l-278 -771h-66l278 771h66zM1292 242q0 -120 -47 -182.5t-136 -62.5q-96 0 -140 60.5t-44 184.5q0 245 184 245q183 0 183 -245zM893 242
q0 -120 -47 -182.5t-136 -62.5q-94 0 -138.5 60.5t-44.5 184.5q0 245 183 245t183 -245zM306 526q0 89 -23 128.5t-68 39.5q-47 0 -69 -39.5t-22 -128.5t21.5 -129t69.5 -40t69.5 41.5t21.5 127.5zM1200 242q0 89 -23 128.5t-68 39.5q-47 0 -69.5 -39.5t-22.5 -128.5
q0 -88 22 -128t70 -40q91 0 91 168zM801 242q0 90 -22.5 129t-68.5 39q-47 0 -69 -39.5t-22 -128.5q0 -88 22 -128t69 -40q48 0 69.5 41.5t21.5 126.5z" />
    <glyph glyph-name="guilsinglleft" unicode="&#x2039;" horiz-adv-x="296" 
d="M271 56l-243 227v77l243 230v-109l-151 -157l151 -155v-113z" />
    <glyph glyph-name="guilsinglright" unicode="&#x203a;" horiz-adv-x="296" 
d="M267 284l-243 -229v110l151 155l-151 156v113l243 -228v-77z" />
    <glyph glyph-name="fraction" unicode="&#x2044;" horiz-adv-x="218" 
d="M364 770l-451 -771h-64l450 771h65z" />
    <glyph glyph-name="fraction" unicode="&#x2215;" horiz-adv-x="218" 
d="M364 770l-451 -771h-64l450 771h65z" />
    <glyph glyph-name="Euro" unicode="&#x20ac;" horiz-adv-x="522" 
d="M511 211q-2 -215 -209 -215q-107 0 -163.5 71t-67.5 232h-49v54h45v27q0 34 1 50h-46v55h50q14 154 71 221.5t159 67.5q195 0 204 -193l-111 -19q-6 54 -25 87t-66 33q-51 0 -79 -45t-37 -152h250v-55h-254q-1 -13 -1 -40q0 -7 0.5 -19t0.5 -18h254v-54h-251
q7 -117 35 -163t80 -46q48 0 70.5 28.5t25.5 103.5z" />
    <glyph glyph-name="trademark" unicode="&#x2122;" horiz-adv-x="582" 
d="M560 520h-66v141l-62 -141h-58l-64 141v-141h-64v250h73l86 -187l82 187h73v-250zM228 706h-72v-186h-73v186h-74v64h219v-64z" />
    <glyph glyph-name="partialdiff" unicode="&#x2202;" 
d="M507 507q0 -59 -23 -100.5t-56 -41.5q-31 0 -53.5 41.5t-22.5 100.5q0 60 22.5 103t53.5 43q33 0 56 -43t23 -103zM284 507q0 -59 -23.5 -100.5t-55.5 -41.5q-31 0 -53.5 41.5t-22.5 100.5q0 60 22.5 103t53.5 43q32 0 55.5 -43t23.5 -103zM619 210q0 -60 -23 -101
t-55 -41q-33 0 -56 41t-23 101q0 59 23.5 102t55.5 43t55 -43t23 -102zM396 210q0 -59 -22.5 -100.5t-53.5 -41.5q-33 0 -56 41t-23 101q0 59 23.5 102t55.5 43q31 0 53.5 -43t22.5 -102zM170 209q0 -59 -22.5 -100t-55.5 -41q-32 0 -55 41t-23 100q0 60 23 103t55 43
q33 0 55.5 -43t22.5 -103z" />
    <glyph glyph-name="product" unicode="&#x220f;" 
d="M507 507q0 -59 -23 -100.5t-56 -41.5q-31 0 -53.5 41.5t-22.5 100.5q0 60 22.5 103t53.5 43q33 0 56 -43t23 -103zM284 507q0 -59 -23.5 -100.5t-55.5 -41.5q-31 0 -53.5 41.5t-22.5 100.5q0 60 22.5 103t53.5 43q32 0 55.5 -43t23.5 -103zM619 210q0 -60 -23 -101
t-55 -41q-33 0 -56 41t-23 101q0 59 23.5 102t55.5 43t55 -43t23 -102zM396 210q0 -59 -22.5 -100.5t-53.5 -41.5q-33 0 -56 41t-23 101q0 59 23.5 102t55.5 43q31 0 53.5 -43t22.5 -102zM170 209q0 -59 -22.5 -100t-55.5 -41q-32 0 -55 41t-23 100q0 60 23 103t55 43
q33 0 55.5 -43t22.5 -103z" />
    <glyph glyph-name="summation" unicode="&#x2211;" 
d="M507 507q0 -59 -23 -100.5t-56 -41.5q-31 0 -53.5 41.5t-22.5 100.5q0 60 22.5 103t53.5 43q33 0 56 -43t23 -103zM284 507q0 -59 -23.5 -100.5t-55.5 -41.5q-31 0 -53.5 41.5t-22.5 100.5q0 60 22.5 103t53.5 43q32 0 55.5 -43t23.5 -103zM619 210q0 -60 -23 -101
t-55 -41q-33 0 -56 41t-23 101q0 59 23.5 102t55.5 43t55 -43t23 -102zM396 210q0 -59 -22.5 -100.5t-53.5 -41.5q-33 0 -56 41t-23 101q0 59 23.5 102t55.5 43q31 0 53.5 -43t22.5 -102zM170 209q0 -59 -22.5 -100t-55.5 -41q-32 0 -55 41t-23 100q0 60 23 103t55 43
q33 0 55.5 -43t22.5 -103z" />
    <glyph glyph-name="minus" unicode="&#x2212;" 
d="M507 507q0 -59 -23 -100.5t-56 -41.5q-31 0 -53.5 41.5t-22.5 100.5q0 60 22.5 103t53.5 43q33 0 56 -43t23 -103zM284 507q0 -59 -23.5 -100.5t-55.5 -41.5q-31 0 -53.5 41.5t-22.5 100.5q0 60 22.5 103t53.5 43q32 0 55.5 -43t23.5 -103zM619 210q0 -60 -23 -101
t-55 -41q-33 0 -56 41t-23 101q0 59 23.5 102t55.5 43t55 -43t23 -102zM396 210q0 -59 -22.5 -100.5t-53.5 -41.5q-33 0 -56 41t-23 101q0 59 23.5 102t55.5 43q31 0 53.5 -43t22.5 -102zM170 209q0 -59 -22.5 -100t-55.5 -41q-32 0 -55 41t-23 100q0 60 23 103t55 43
q33 0 55.5 -43t22.5 -103z" />
    <glyph glyph-name="radical" unicode="&#x221a;" horiz-adv-x="498" 
d="M503 784l-260 -794h-87l-149 364h112l81 -209l192 639h111z" />
    <glyph glyph-name="infinity" unicode="&#x221e;" 
d="M507 507q0 -59 -23 -100.5t-56 -41.5q-31 0 -53.5 41.5t-22.5 100.5q0 60 22.5 103t53.5 43q33 0 56 -43t23 -103zM284 507q0 -59 -23.5 -100.5t-55.5 -41.5q-31 0 -53.5 41.5t-22.5 100.5q0 60 22.5 103t53.5 43q32 0 55.5 -43t23.5 -103zM619 210q0 -60 -23 -101
t-55 -41q-33 0 -56 41t-23 101q0 59 23.5 102t55.5 43t55 -43t23 -102zM396 210q0 -59 -22.5 -100.5t-53.5 -41.5q-33 0 -56 41t-23 101q0 59 23.5 102t55.5 43q31 0 53.5 -43t22.5 -102zM170 209q0 -59 -22.5 -100t-55.5 -41q-32 0 -55 41t-23 100q0 60 23 103t55 43
q33 0 55.5 -43t22.5 -103z" />
    <glyph glyph-name="integral" unicode="&#x222b;" 
d="M507 507q0 -59 -23 -100.5t-56 -41.5q-31 0 -53.5 41.5t-22.5 100.5q0 60 22.5 103t53.5 43q33 0 56 -43t23 -103zM284 507q0 -59 -23.5 -100.5t-55.5 -41.5q-31 0 -53.5 41.5t-22.5 100.5q0 60 22.5 103t53.5 43q32 0 55.5 -43t23.5 -103zM619 210q0 -60 -23 -101
t-55 -41q-33 0 -56 41t-23 101q0 59 23.5 102t55.5 43t55 -43t23 -102zM396 210q0 -59 -22.5 -100.5t-53.5 -41.5q-33 0 -56 41t-23 101q0 59 23.5 102t55.5 43q31 0 53.5 -43t22.5 -102zM170 209q0 -59 -22.5 -100t-55.5 -41q-32 0 -55 41t-23 100q0 60 23 103t55 43
q33 0 55.5 -43t22.5 -103z" />
    <glyph glyph-name="approxequal" unicode="&#x2248;" 
d="M507 507q0 -59 -23 -100.5t-56 -41.5q-31 0 -53.5 41.5t-22.5 100.5q0 60 22.5 103t53.5 43q33 0 56 -43t23 -103zM284 507q0 -59 -23.5 -100.5t-55.5 -41.5q-31 0 -53.5 41.5t-22.5 100.5q0 60 22.5 103t53.5 43q32 0 55.5 -43t23.5 -103zM619 210q0 -60 -23 -101
t-55 -41q-33 0 -56 41t-23 101q0 59 23.5 102t55.5 43t55 -43t23 -102zM396 210q0 -59 -22.5 -100.5t-53.5 -41.5q-33 0 -56 41t-23 101q0 59 23.5 102t55.5 43q31 0 53.5 -43t22.5 -102zM170 209q0 -59 -22.5 -100t-55.5 -41q-32 0 -55 41t-23 100q0 60 23 103t55 43
q33 0 55.5 -43t22.5 -103z" />
    <glyph glyph-name="notequal" unicode="&#x2260;" horiz-adv-x="412" 
d="M370 193h-176l-23 -79h-70l23 79v0v0h-1v0h-1h-1h-1h-1h-1h-1h-1h-1h-1h-1h-1h-1h-1h-1h-1h-1h-1h-2h-1h-1h-1h-1h-2h-1h-1h-2h-1h-1h-2h-1h-1h-2h-1h-2h-1h-2h-1h-2h-1h-2h-2h-1h-2h-1h-2h-2h-1h-2h-2h-2h-1h-2h-2h-2h-9v90h116l26 90h-142v89h172l23 80h70l-23 -80h87
v-89h-120l-27 -90h147v-90z" />
    <glyph glyph-name="lessequal" unicode="&#x2264;" 
d="M507 507q0 -59 -23 -100.5t-56 -41.5q-31 0 -53.5 41.5t-22.5 100.5q0 60 22.5 103t53.5 43q33 0 56 -43t23 -103zM284 507q0 -59 -23.5 -100.5t-55.5 -41.5q-31 0 -53.5 41.5t-22.5 100.5q0 60 22.5 103t53.5 43q32 0 55.5 -43t23.5 -103zM619 210q0 -60 -23 -101
t-55 -41q-33 0 -56 41t-23 101q0 59 23.5 102t55.5 43t55 -43t23 -102zM396 210q0 -59 -22.5 -100.5t-53.5 -41.5q-33 0 -56 41t-23 101q0 59 23.5 102t55.5 43q31 0 53.5 -43t22.5 -102zM170 209q0 -59 -22.5 -100t-55.5 -41q-32 0 -55 41t-23 100q0 60 23 103t55 43
q33 0 55.5 -43t22.5 -103z" />
    <glyph glyph-name="greaterequal" unicode="&#x2265;" 
d="M507 507q0 -59 -23 -100.5t-56 -41.5q-31 0 -53.5 41.5t-22.5 100.5q0 60 22.5 103t53.5 43q33 0 56 -43t23 -103zM284 507q0 -59 -23.5 -100.5t-55.5 -41.5q-31 0 -53.5 41.5t-22.5 100.5q0 60 22.5 103t53.5 43q32 0 55.5 -43t23.5 -103zM619 210q0 -60 -23 -101
t-55 -41q-33 0 -56 41t-23 101q0 59 23.5 102t55.5 43t55 -43t23 -102zM396 210q0 -59 -22.5 -100.5t-53.5 -41.5q-33 0 -56 41t-23 101q0 59 23.5 102t55.5 43q31 0 53.5 -43t22.5 -102zM170 209q0 -59 -22.5 -100t-55.5 -41q-32 0 -55 41t-23 100q0 60 23 103t55 43
q33 0 55.5 -43t22.5 -103z" />
    <glyph glyph-name="lozenge" unicode="&#x25ca;" 
d="M507 507q0 -59 -23 -100.5t-56 -41.5q-31 0 -53.5 41.5t-22.5 100.5q0 60 22.5 103t53.5 43q33 0 56 -43t23 -103zM284 507q0 -59 -23.5 -100.5t-55.5 -41.5q-31 0 -53.5 41.5t-22.5 100.5q0 60 22.5 103t53.5 43q32 0 55.5 -43t23.5 -103zM619 210q0 -60 -23 -101
t-55 -41q-33 0 -56 41t-23 101q0 59 23.5 102t55.5 43t55 -43t23 -102zM396 210q0 -59 -22.5 -100.5t-53.5 -41.5q-33 0 -56 41t-23 101q0 59 23.5 102t55.5 43q31 0 53.5 -43t22.5 -102zM170 209q0 -59 -22.5 -100t-55.5 -41q-32 0 -55 41t-23 100q0 60 23 103t55 43
q33 0 55.5 -43t22.5 -103z" />
    <glyph glyph-name="apple" unicode="&#xf8ff;" 
d="M507 507q0 -59 -23 -100.5t-56 -41.5q-31 0 -53.5 41.5t-22.5 100.5q0 60 22.5 103t53.5 43q33 0 56 -43t23 -103zM284 507q0 -59 -23.5 -100.5t-55.5 -41.5q-31 0 -53.5 41.5t-22.5 100.5q0 60 22.5 103t53.5 43q32 0 55.5 -43t23.5 -103zM619 210q0 -60 -23 -101
t-55 -41q-33 0 -56 41t-23 101q0 59 23.5 102t55.5 43t55 -43t23 -102zM396 210q0 -59 -22.5 -100.5t-53.5 -41.5q-33 0 -56 41t-23 101q0 59 23.5 102t55.5 43q31 0 53.5 -43t22.5 -102zM170 209q0 -59 -22.5 -100t-55.5 -41q-32 0 -55 41t-23 100q0 60 23 103t55 43
q33 0 55.5 -43t22.5 -103z" />
    <glyph glyph-name="nbspace" horiz-adv-x="205" 
 />
    </font>
</defs>
</svg>
